<svg id="グループ_39028" data-name="グループ 39028" xmlns="http://www.w3.org/2000/svg" width="27.33" height="23.516" viewBox="0 0 27.33 23.516">
  <g id="グループ_22624" data-name="グループ 22624" transform="translate(0 0)" opacity="0">
    <rect id="長方形_22624" data-name="長方形 22624" width="27.33" height="23.516" fill="#fff"/>
    <path id="長方形_22624_-_アウトライン" data-name="長方形 22624 - アウトライン" d="M.636.636V22.881H26.694V.636H.636M0,0H27.33V23.516H0Z" fill="#707070"/>
  </g>
  <g id="レイヤー_2" data-name="レイヤー 2" transform="translate(2.542 0.636)">
    <g id="レイヤー_1" data-name="レイヤー 1" transform="translate(0 0)">
      <path id="パス_3841" data-name="パス 3841" d="M2.244,2.371C1.219,1.214-.625,2.31.195,4.144a37.725,37.725,0,0,0,3.074,6.363c1.486,2.162,3.074,1.926,4.672,2.449L9.1,13.55l7.879,9.068,1.588-1.393h0L8.392,9.451Z" transform="translate(0.009 0.018)" fill="#e92"/>
      <path id="パス_3842" data-name="パス 3842" d="M20.892,4.1,18.176,7.284a.461.461,0,0,1-.676,0L17.4,7.2a.482.482,0,0,1,0-.686l2.756-3.176a.82.82,0,0,0-.1-1.27.809.809,0,0,0-1.27.082L16.015,5.327a.471.471,0,0,1-.676,0l-.1-.092a.482.482,0,0,1-.133-.594l2.756-3.156A.883.883,0,1,0,16.517.337L13.894,3.36c-1.465,1.67-1.445,2.449-1.24,3.545a2.377,2.377,0,0,1-.492,2.572L10.82,11.024l1.4,1.619,1.537-1.773a2.408,2.408,0,0,1,2.479-.85c1.117.061,1.9,0,3.34-1.711l2.633-3.023A.889.889,0,0,0,20.892,4.1Z" transform="translate(0.276 -0.028)" fill="#e92"/>
      <path id="パス_3843" data-name="パス 3843" d="M8.2,13.95,2.13,20.927l1.6,1.393,5.943-6.834-1.229-1.4Z" transform="translate(0.062 0.314)" fill="#e92"/>
    </g>
  </g>
</svg>
