<svg id="グループ_39031" data-name="グループ 39031" xmlns="http://www.w3.org/2000/svg" width="27.33" height="23.516" viewBox="0 0 27.33 23.516">
  <g id="グループ_22620" data-name="グループ 22620" transform="translate(0 0)" opacity="0">
    <rect id="長方形_22620" data-name="長方形 22620" width="27.33" height="23.516" fill="#fff"/>
    <path id="長方形_22620_-_アウトライン" data-name="長方形 22620 - アウトライン" d="M.636.636V22.881H26.694V.636H.636M0,0H27.33V23.516H0Z" fill="#707070"/>
  </g>
  <g id="グループ_39011" data-name="グループ 39011" transform="translate(1.806 0.99)">
    <g id="グループ_39006" data-name="グループ 39006" transform="translate(0 7.531)">
      <g id="グループ_39005" data-name="グループ 39005" transform="translate(0 0)">
        <g id="グループ_39004" data-name="グループ 39004" transform="translate(0 0)">
          <path id="パス_3870" data-name="パス 3870" d="M222.067,392.5a25.77,25.77,0,0,1-11.638-2.792.636.636,0,1,1,.577-1.133,24.277,24.277,0,0,0,22.3-.116.636.636,0,1,1,.589,1.127,25.511,25.511,0,0,1-11.831,2.914Z" transform="translate(-210.082 -388.385)" fill="#a1b93a"/>
        </g>
        <path id="パス_3871" data-name="パス 3871" d="M218.512,404.062a.636.636,0,0,1-.433-.17l-3.255-3.027-3.618,1.46a.636.636,0,0,1-.858-.728l1.843-8.22a.636.636,0,1,1,1.24.278l-1.578,7.038,2.869-1.158a.636.636,0,0,1,.671.124l2.74,2.549,1.6-7.139a.636.636,0,0,1,1.24.278l-1.843,8.22a.636.636,0,0,1-.62.5Z" transform="translate(-210.219 -390.839)" fill="#a1b93a"/>
        <path id="パス_3872" data-name="パス 3872" d="M240.643,403.8a.636.636,0,0,1-.619-.49l-1.927-8.2a.636.636,0,0,1,1.237-.291l1.674,7.123,2.714-2.577a.635.635,0,0,1,.669-.131l2.881,1.128-1.65-7.022a.636.636,0,0,1,1.237-.291l1.927,8.2a.636.636,0,0,1-.851.737l-3.632-1.423-3.224,3.061A.636.636,0,0,1,240.643,403.8Z" transform="translate(-225.372 -390.666)" fill="#a1b93a"/>
      </g>
    </g>
    <g id="グループ_39010" data-name="グループ 39010" transform="translate(2.394 0)">
      <g id="グループ_39007" data-name="グループ 39007" transform="translate(5.866 1.266)">
        <path id="パス_3877" data-name="パス 3877" d="M-7259.145,7484.15h-1.677a.476.476,0,0,1-.477-.477.477.477,0,0,1,.477-.477h1.677a.477.477,0,0,1,.477.477A.476.476,0,0,1-7259.145,7484.15Z" transform="translate(7261.298 -7479.985)" fill="#a1b93a"/>
        <path id="パス_3878" data-name="パス 3878" d="M-7259.145,7484.15h-1.677a.476.476,0,0,1-.477-.477.477.477,0,0,1,.477-.477h1.677a.477.477,0,0,1,.477.477A.476.476,0,0,1-7259.145,7484.15Z" transform="translate(7266.045 -7479.985)" fill="#a1b93a"/>
        <path id="パス_3879" data-name="パス 3879" d="M2.154.953H.477A.477.477,0,0,1,.477,0H2.154a.477.477,0,0,1,0,.953Z" transform="translate(4.166 0) rotate(90)" fill="#a1b93a"/>
        <path id="パス_3880" data-name="パス 3880" d="M2.154.953H.477A.477.477,0,0,1,.477,0H2.154a.477.477,0,0,1,0,.953Z" transform="translate(4.166 4.748) rotate(90)" fill="#a1b93a"/>
      </g>
      <g id="グループ_39008" data-name="グループ 39008" transform="translate(0 0)">
        <path id="パス_3877-2" data-name="パス 3877" d="M-7259.652,7484.15h-1.169a.476.476,0,0,1-.477-.477.477.477,0,0,1,.477-.477h1.169a.477.477,0,0,1,.477.477A.477.477,0,0,1-7259.652,7484.15Z" transform="translate(7261.298 -7480.958)" fill="#a1b93a"/>
        <path id="パス_3878-2" data-name="パス 3878" d="M-7259.652,7484.15h-1.169a.476.476,0,0,1-.477-.477.477.477,0,0,1,.477-.477h1.169a.477.477,0,0,1,.477.477A.477.477,0,0,1-7259.652,7484.15Z" transform="translate(7264.607 -7480.958)" fill="#a1b93a"/>
        <path id="パス_3879-2" data-name="パス 3879" d="M1.646.953H.477A.477.477,0,0,1,.477,0H1.646a.477.477,0,0,1,0,.953Z" transform="translate(3.193) rotate(90)" fill="#a1b93a"/>
        <path id="パス_3880-2" data-name="パス 3880" d="M1.646.953H.477A.477.477,0,0,1,.477,0H1.646a.477.477,0,0,1,0,.953Z" transform="translate(3.193 3.309) rotate(90)" fill="#a1b93a"/>
      </g>
      <g id="グループ_39009" data-name="グループ 39009" transform="translate(13.679 0)">
        <path id="パス_3877-3" data-name="パス 3877" d="M-7259.652,7484.15h-1.169a.476.476,0,0,1-.477-.477.477.477,0,0,1,.477-.477h1.169a.477.477,0,0,1,.477.477A.477.477,0,0,1-7259.652,7484.15Z" transform="translate(7261.298 -7480.958)" fill="#a1b93a"/>
        <path id="パス_3878-3" data-name="パス 3878" d="M-7259.652,7484.15h-1.169a.476.476,0,0,1-.477-.477.477.477,0,0,1,.477-.477h1.169a.477.477,0,0,1,.477.477A.477.477,0,0,1-7259.652,7484.15Z" transform="translate(7264.607 -7480.958)" fill="#a1b93a"/>
        <path id="パス_3879-3" data-name="パス 3879" d="M1.646.953H.477A.477.477,0,0,1,.477,0H1.646a.477.477,0,0,1,0,.953Z" transform="translate(3.193) rotate(90)" fill="#a1b93a"/>
        <path id="パス_3880-3" data-name="パス 3880" d="M1.646.953H.477A.477.477,0,0,1,.477,0H1.646a.477.477,0,0,1,0,.953Z" transform="translate(3.193 3.309) rotate(90)" fill="#a1b93a"/>
      </g>
    </g>
  </g>
</svg>
