<svg id="グループ_39026" data-name="グループ 39026" xmlns="http://www.w3.org/2000/svg" width="27.33" height="23.517" viewBox="0 0 27.33 23.517">
  <g id="グループ_22626" data-name="グループ 22626" opacity="0">
    <rect id="長方形_22626" data-name="長方形 22626" width="27.33" height="23.516" fill="#fff"/>
    <path id="長方形_22626_-_アウトライン" data-name="長方形 22626 - アウトライン" d="M.636.636V22.881H26.694V.636H.636M0,0H27.33V23.516H0Z" fill="#707070"/>
  </g>
  <g id="レイヤー_2" data-name="レイヤー 2" transform="translate(5.72 0.914)">
    <g id="レイヤー_1" data-name="レイヤー 1" transform="translate(0 0)">
      <path id="パス_3855" data-name="パス 3855" d="M0,9.437v5.281H6.993v-6H.717A.717.717,0,0,0,0,9.437Z" transform="translate(0 -1.183)" fill="#c41e1e"/>
      <path id="パス_3856" data-name="パス 3856" d="M17.249,8.72H11v6h6.993V9.437a.717.717,0,0,0-.743-.717Z" transform="translate(-1.492 -1.183)" fill="#c41e1e"/>
      <path id="パス_3857" data-name="パス 3857" d="M0,23.343a.726.726,0,0,0,.717.717H6.993V18.07H0Z" transform="translate(0 -2.451)" fill="#c41e1e"/>
      <path id="パス_3858" data-name="パス 3858" d="M11,24.059h6.275a.726.726,0,0,0,.717-.726V18.06H11Z" transform="translate(-1.492 -2.449)" fill="#c41e1e"/>
      <path id="パス_3859" data-name="パス 3859" d="M14.2,4.8a4.149,4.149,0,0,0,.683-1.055,2.852,2.852,0,0,0,.268-1.15,2.057,2.057,0,0,0-.13-.787,2.446,2.446,0,0,0-.415-.769,2.9,2.9,0,0,0-.977-.778A2.93,2.93,0,0,0,12.422,0,3.086,3.086,0,0,0,11.5.147a3.146,3.146,0,0,0-1.262.8,3.916,3.916,0,0,0-.864,1.5c-.251.787-1.02,2.593-1.046,2.593H8.247S7.452,3.2,7.2,2.446a4.261,4.261,0,0,0-.519-1.072A3.319,3.319,0,0,0,5.515.337,2.982,2.982,0,0,0,4.15,0,2.8,2.8,0,0,0,2.577.467a2.956,2.956,0,0,0-.657.562A2.636,2.636,0,0,0,1.5,1.8a2.463,2.463,0,0,0-.1.8,3.034,3.034,0,0,0,.112.787,3.812,3.812,0,0,0,.7,1.262A5.428,5.428,0,0,0,4.184,6.051a6.915,6.915,0,0,0,2.826.579H9.6a7.157,7.157,0,0,0,2.213-.346A5.7,5.7,0,0,0,14.2,4.8Zm-7.192.631A6.051,6.051,0,0,1,5.17,5.186a4.477,4.477,0,0,1-1.9-1.176,2.783,2.783,0,0,1-.484-.761,1.573,1.573,0,0,1-.147-.657,1.1,1.1,0,0,1,.061-.38h0A1.374,1.374,0,0,1,2.922,1.8a1.443,1.443,0,0,1,.527-.406,1.6,1.6,0,0,1,.7-.156,1.729,1.729,0,0,1,.536.086,1.772,1.772,0,0,1,.761.493,2.593,2.593,0,0,1,.588,1.02A12.1,12.1,0,0,0,7.149,5.428Zm2.412,0a13.069,13.069,0,0,0,1.115-2.593,2.645,2.645,0,0,1,.363-.752,2.014,2.014,0,0,1,.717-.648,1.729,1.729,0,0,1,.8-.2,1.634,1.634,0,0,1,.864.259,1.4,1.4,0,0,1,.553.717,1.063,1.063,0,0,1,.061.38,1.625,1.625,0,0,1-.061.432,2.455,2.455,0,0,1-.467.864A4.071,4.071,0,0,1,11.86,5a5.834,5.834,0,0,1-2.325.475Z" transform="translate(-0.191 0)" fill="#c41e1e"/>
    </g>
  </g>
</svg>
