<svg id="グループ_39027" data-name="グループ 39027" xmlns="http://www.w3.org/2000/svg" width="27.33" height="23.517" viewBox="0 0 27.33 23.517">
  <g id="グループ_22625" data-name="グループ 22625" transform="translate(0 0)" opacity="0.002">
    <rect id="長方形_22625" data-name="長方形 22625" width="27.33" height="23.516" fill="#fff"/>
    <path id="長方形_22625_-_アウトライン" data-name="長方形 22625 - アウトライン" d="M.636.636V22.881H26.694V.636H.636M0,0H27.33V23.516H0Z" fill="#707070"/>
  </g>
  <g id="レイヤー_2" data-name="レイヤー 2" transform="translate(2.542 0.636)">
    <g id="レイヤー_1" data-name="レイヤー 1">
      <path id="パス_3844" data-name="パス 3844" d="M11.442,0A11.452,11.452,0,0,0,0,11.177v.912a11.41,11.41,0,0,0,2.492,6.5l1.06,1.06a11.4,11.4,0,0,0,7.264,3.181h.848A11.442,11.442,0,0,0,11.442,0Zm0,14.6a3.181,3.181,0,1,1,3.181-3.181A3.181,3.181,0,0,1,11.442,14.6Z" fill="#9b680d"/>
      <path id="パス_3845" data-name="パス 3845" d="M8.246,4.3a.456.456,0,0,0,.329.138A.414.414,0,0,0,8.893,4.3a.445.445,0,0,0,0-.636l-.848-.817a.457.457,0,0,0-.647.647Z" transform="translate(0.439 0.164)" fill="#fff"/>
      <path id="パス_3846" data-name="パス 3846" d="M10.956,4.438a.414.414,0,0,0,.318-.138l.817-.806a.477.477,0,0,0,0-.647.456.456,0,0,0-.647,0l-.817.817a.445.445,0,0,0,0,.636A.456.456,0,0,0,10.956,4.438Z" transform="translate(0.634 0.164)" fill="#fff"/>
      <path id="パス_3847" data-name="パス 3847" d="M14.634,4.3a.456.456,0,0,0,.329.138A.414.414,0,0,0,15.28,4.3a.445.445,0,0,0,0-.636l-.806-.817a.457.457,0,1,0-.647.647Z" transform="translate(0.827 0.164)" fill="#fff"/>
      <path id="パス_3848" data-name="パス 3848" d="M14.245,7.33a.456.456,0,0,0,.318.138.509.509,0,0,0,.329-.138.456.456,0,0,0,0-.647l-.848-.806a.445.445,0,0,0-.636,0,.456.456,0,0,0,0,.647Z" transform="translate(0.802 0.347)" fill="#fff"/>
      <path id="パス_3849" data-name="パス 3849" d="M16.956,7.468a.456.456,0,0,0,.318-.138l.817-.806a.457.457,0,1,0-.647-.647l-.806.806a.456.456,0,0,0,0,.647.509.509,0,0,0,.318.138Z" transform="translate(0.997 0.347)" fill="#fff"/>
      <path id="パス_3850" data-name="パス 3850" d="M15.228,10.35a.456.456,0,0,0,.329.138.414.414,0,0,0,.318-.138l.817-.806a.477.477,0,0,0,0-.647.456.456,0,0,0-.647,0l-.817.817a.445.445,0,0,0,0,.636Z" transform="translate(0.912 0.529)" fill="#fff"/>
      <path id="パス_3851" data-name="パス 3851" d="M11.367,21.3A10.137,10.137,0,0,1,3.51,4.76,3.181,3.181,0,0,0,5.058,6.552a4.973,4.973,0,0,0,1.728.414c.87.085,1.272.127,1.559.923A4.411,4.411,0,0,0,6.9,11.154a4.475,4.475,0,0,0,4.464,4.464,4.422,4.422,0,0,0,3.7-1.983,3.181,3.181,0,0,0,2.216,1.06H17.4a5.238,5.238,0,0,0,1.612-.339,3.181,3.181,0,0,1,.954-.233,1.166,1.166,0,0,1,.9.5,10.127,10.127,0,0,1-9.5,6.681Z" transform="translate(0.074 0.288)" fill="#fff"/>
      <path id="パス_3852" data-name="パス 3852" d="M19.235,10.35a.456.456,0,0,0,.329.138.414.414,0,0,0,.318-.138.445.445,0,0,0,0-.636L19.044,8.9a.457.457,0,1,0-.647.647Z" transform="translate(1.103 0.529)" fill="#fff"/>
    </g>
  </g>
</svg>
