<svg id="グループ_39029" data-name="グループ 39029" xmlns="http://www.w3.org/2000/svg" width="27.33" height="23.517" viewBox="0 0 27.33 23.517">
  <g id="グループ_22623" data-name="グループ 22623" transform="translate(0)" opacity="0">
    <rect id="長方形_22623" data-name="長方形 22623" width="27.33" height="23.516" fill="#fff"/>
    <path id="長方形_22623_-_アウトライン" data-name="長方形 22623 - アウトライン" d="M.636.636V22.881H26.694V.636H.636M0,0H27.33V23.516H0Z" fill="#707070"/>
  </g>
  <g id="グループ_39000" data-name="グループ 39000" transform="translate(2.655 1.136)">
    <path id="長方形_22603" data-name="長方形 22603" d="M.413,0h13.02a1.686,1.686,0,0,1,1.684,1.684v18.56a1.686,1.686,0,0,1-1.684,1.684H.413A.413.413,0,0,1,0,21.515V.413A.413.413,0,0,1,.413,0Zm13.02,21.1a.859.859,0,0,0,.858-.858V1.684a.859.859,0,0,0-.858-.858H.826V21.1Z" transform="translate(21.928 5.904) rotate(90)" fill="#b07a79"/>
    <path id="パス_3861" data-name="パス 3861" d="M4.789,4.905a.413.413,0,0,1-.413-.413V2.131A1.307,1.307,0,0,0,3.071.826H.413A.413.413,0,0,1,.413,0H3.071A2.134,2.134,0,0,1,5.2,2.131V4.492A.413.413,0,0,1,4.789,4.905Z" transform="translate(0 6.73) rotate(-90)" fill="#b07a79"/>
    <path id="パス_3862" data-name="パス 3862" d="M3.071,4.905H.413a.413.413,0,0,1,0-.826H3.071A1.306,1.306,0,0,0,4.376,2.774V.413a.413.413,0,1,1,.826,0V2.774A2.134,2.134,0,0,1,3.071,4.905Z" transform="translate(17.023 6.73) rotate(-90)" fill="#b07a79"/>
    <path id="長方形_22607" data-name="長方形 22607" d="M-.237-.65H3.269a.413.413,0,0,1,.413.413V3.269a.413.413,0,0,1-.413.413H-.237A.413.413,0,0,1-.65,3.269V-.237A.413.413,0,0,1-.237-.65ZM2.856.176H.176V2.856h2.68Z" transform="translate(4.309 8.441)" fill="#b07a79"/>
    <path id="長方形_22608" data-name="長方形 22608" d="M-.237-.65H3.269a.413.413,0,0,1,.413.413V3.269a.413.413,0,0,1-.413.413H-.237A.413.413,0,0,1-.65,3.269V-.237A.413.413,0,0,1-.237-.65ZM2.856.176H.176V2.856h2.68Z" transform="translate(7.814 8.441)" fill="#b07a79"/>
    <path id="長方形_22609" data-name="長方形 22609" d="M-.237-.65H3.269a.413.413,0,0,1,.413.413V3.269a.413.413,0,0,1-.413.413H-.237A.413.413,0,0,1-.65,3.269V-.237A.413.413,0,0,1-.237-.65ZM2.856.176H.176V2.856h2.68Z" transform="translate(11.32 8.441)" fill="#b07a79"/>
    <rect id="長方形_22610" data-name="長方形 22610" width="3.506" height="3.506" transform="translate(14.589 8.204)" fill="#d6aeae"/>
    <path id="長方形_22610_-_アウトライン" data-name="長方形 22610 - アウトライン" d="M-.237-.65H3.269a.413.413,0,0,1,.413.413V3.269a.413.413,0,0,1-.413.413H-.237A.413.413,0,0,1-.65,3.269V-.237A.413.413,0,0,1-.237-.65ZM2.856.176H.176V2.856h2.68Z" transform="translate(14.826 8.441)" fill="#b07a79"/>
    <path id="長方形_22611" data-name="長方形 22611" d="M-.237-.65H3.269a.413.413,0,0,1,.413.413V3.269a.413.413,0,0,1-.413.413H-.237A.413.413,0,0,1-.65,3.269V-.237A.413.413,0,0,1-.237-.65ZM2.856.176H.176V2.856h2.68Z" transform="translate(4.309 11.947)" fill="#b07a79"/>
    <path id="長方形_22612" data-name="長方形 22612" d="M-.237-.65H3.269a.413.413,0,0,1,.413.413V3.269a.413.413,0,0,1-.413.413H-.237A.413.413,0,0,1-.65,3.269V-.237A.413.413,0,0,1-.237-.65ZM2.856.176H.176V2.856h2.68Z" transform="translate(7.814 11.947)" fill="#b07a79"/>
    <path id="長方形_22613" data-name="長方形 22613" d="M-.237-.65H3.269a.413.413,0,0,1,.413.413V3.269a.413.413,0,0,1-.413.413H-.237A.413.413,0,0,1-.65,3.269V-.237A.413.413,0,0,1-.237-.65ZM2.856.176H.176V2.856h2.68Z" transform="translate(11.32 11.947)" fill="#b07a79"/>
    <rect id="長方形_22614" data-name="長方形 22614" width="3.506" height="3.506" transform="translate(14.589 11.71)" fill="#d6aeae"/>
    <path id="長方形_22614_-_アウトライン" data-name="長方形 22614 - アウトライン" d="M-.237-.65H3.269a.413.413,0,0,1,.413.413V3.269a.413.413,0,0,1-.413.413H-.237A.413.413,0,0,1-.65,3.269V-.237A.413.413,0,0,1-.237-.65ZM2.856.176H.176V2.856h2.68Z" transform="translate(14.826 11.947)" fill="#b07a79"/>
    <path id="長方形_22615" data-name="長方形 22615" d="M-.237-.65H3.269a.413.413,0,0,1,.413.413V3.269a.413.413,0,0,1-.413.413H-.237A.413.413,0,0,1-.65,3.269V-.237A.413.413,0,0,1-.237-.65ZM2.856.176H.176V2.856h2.68Z" transform="translate(4.309 15.452)" fill="#b07a79"/>
    <path id="長方形_22616" data-name="長方形 22616" d="M-.237-.65H3.269a.413.413,0,0,1,.413.413V3.269a.413.413,0,0,1-.413.413H-.237A.413.413,0,0,1-.65,3.269V-.237A.413.413,0,0,1-.237-.65ZM2.856.176H.176V2.856h2.68Z" transform="translate(7.814 15.452)" fill="#b07a79"/>
    <path id="長方形_22617" data-name="長方形 22617" d="M-.237-.65H3.269a.413.413,0,0,1,.413.413V3.269a.413.413,0,0,1-.413.413H-.237A.413.413,0,0,1-.65,3.269V-.237A.413.413,0,0,1-.237-.65ZM2.856.176H.176V2.856h2.68Z" transform="translate(11.32 15.452)" fill="#b07a79"/>
    <rect id="長方形_22618" data-name="長方形 22618" width="3.506" height="3.506" transform="translate(14.589 15.215)" fill="#d6aeae"/>
    <path id="長方形_22618_-_アウトライン" data-name="長方形 22618 - アウトライン" d="M-.237-.65H3.269a.413.413,0,0,1,.413.413V3.269a.413.413,0,0,1-.413.413H-.237A.413.413,0,0,1-.65,3.269V-.237A.413.413,0,0,1-.237-.65ZM2.856.176H.176V2.856h2.68Z" transform="translate(14.826 15.452)" fill="#b07a79"/>
    <path id="パス_3863" data-name="パス 3863" d="M-6974.727,7343.447h-5.71a.413.413,0,0,1-.413-.414.413.413,0,0,1,.413-.413h5.71a.413.413,0,0,1,.413.413A.413.413,0,0,1-6974.727,7343.447Z" transform="translate(6988.665 -7341.093)" fill="#b07a79"/>
    <path id="パス_3864" data-name="パス 3864" d="M3.469.826H.413A.413.413,0,0,1,.413,0H3.469a.413.413,0,0,1,0,.826Z" transform="translate(7.096 0) rotate(90)" fill="#b07a79"/>
    <path id="パス_3865" data-name="パス 3865" d="M3.469.826H.413A.413.413,0,0,1,.413,0H3.469a.413.413,0,0,1,0,.826Z" transform="translate(15.896 0) rotate(90)" fill="#b07a79"/>
  </g>
</svg>
