<svg id="ビルのアイコン素材_その2" data-name="ビルのアイコン素材 その2" xmlns="http://www.w3.org/2000/svg" width="17.106" height="20" viewBox="0 0 17.106 20">
  <path id="パス_3813" data-name="パス 3813" d="M48.118,0,37.037,2.733V19.047L48.108,20l6.036-1.026V2.444ZM46.932,18.427l-3.617-.311v-3.1l-2.152-.026v2.944L38.5,17.7V3.882L46.932,1.8Z" transform="translate(-37.037)" fill="#333"/>
  <path id="パス_3814" data-name="パス 3814" d="M228.284,76.933l-1.747.367v2.056l1.747-.3Z" transform="translate(-219.135 -73.928)" fill="#333"/>
  <path id="パス_3815" data-name="パス 3815" d="M88.633,112.033l-1.217.257v1.8l1.217-.209Z" transform="translate(-85.448 -107.657)" fill="#333"/>
  <path id="パス_3816" data-name="パス 3816" d="M151.972,95.942l-1.546.324v1.906l1.546-.267Z" transform="translate(-145.997 -92.194)" fill="#333"/>
  <path id="パス_3817" data-name="パス 3817" d="M88.633,203.184l-1.217.167v1.808l1.217-.121Z" transform="translate(-85.448 -195.247)" fill="#333"/>
  <path id="パス_3818" data-name="パス 3818" d="M151.972,192.792l-1.546.209v1.906l1.546-.152Z" transform="translate(-145.997 -185.261)" fill="#333"/>
  <path id="パス_3819" data-name="パス 3819" d="M228.284,181.04l-1.747.237V183.3l1.747-.172Z" transform="translate(-219.135 -173.968)" fill="#333"/>
  <path id="パス_3820" data-name="パス 3820" d="M228.284,286.135l-1.747.108v2.024l1.747-.043Z" transform="translate(-219.135 -274.958)" fill="#333"/>
  <path id="パス_3821" data-name="パス 3821" d="M151.972,291.476l-1.546.1v1.906l1.546-.038Z" transform="translate(-145.997 -280.09)" fill="#333"/>
  <path id="パス_3822" data-name="パス 3822" d="M88.633,296.2l-1.217.076v1.808l1.217-.03Z" transform="translate(-85.448 -284.628)" fill="#333"/>
</svg>
