<svg xmlns="http://www.w3.org/2000/svg" width="20" height="18" viewBox="0 0 20 18">
  <g id="グループ_38948" data-name="グループ 38948" transform="translate(96 -3665)">
    <g id="長方形_22532" data-name="長方形 22532" transform="translate(-96 3665)" fill="#fff" stroke="#707070" stroke-width="1" opacity="0">
      <rect width="20" height="18" stroke="none"/>
      <rect x="0.5" y="0.5" width="19" height="17" fill="none"/>
    </g>
    <g id="フォルダアイコン11" transform="translate(-96 3667)">
      <path id="パス_3809" data-name="パス 3809" d="M18.9,94.334a1,1,0,0,0-.849-.547H7.639a1.428,1.428,0,0,0-1.3,1.118L4.886,99.948a.483.483,0,0,1-.28.327.377.377,0,0,1-.385-.074l-.216-.186a.7.7,0,0,1-.188-.709l1.47-5.152a2.193,2.193,0,0,1,1.983-1.71h6.482l-.217-.824a1.444,1.444,0,0,0-1.314-1.178H5.07a1.114,1.114,0,0,1-1-.784,1.324,1.324,0,0,0-1.188-.931H1.036a.991.991,0,0,0-.839.528A1.532,1.532,0,0,0,.052,90.4l3.129,12.2A1.329,1.329,0,0,0,4.4,103.677H15.565a1.318,1.318,0,0,0,1.206-1.02l2.254-7.15A1.538,1.538,0,0,0,18.9,94.334Z" transform="translate(0 -88.726)" fill="#333"/>
    </g>
  </g>
</svg>
