<svg xmlns="http://www.w3.org/2000/svg" width="47.061" height="47.062" viewBox="0 0 47.061 47.062">
  <g id="グループ_1675" data-name="グループ 1675" transform="translate(-63.854 -1049.357)">
    <path id="パス_15783" data-name="パス 15783" d="M110.915,1072.888a23.531,23.531,0,1,0-27.207,23.245V1079.69H77.733v-6.8h5.975V1067.7c0-5.9,3.513-9.155,8.887-9.155a36.153,36.153,0,0,1,5.268.46v5.79H94.9c-2.923,0-3.835,1.814-3.835,3.675v4.414h6.526l-1.043,6.8H91.061v16.443A23.537,23.537,0,0,0,110.915,1072.888Z" fill="#1877f2"/>
    <path id="パス_15784" data-name="パス 15784" d="M96.544,1079.69l1.043-6.8H91.061v-4.414c0-1.861.912-3.675,3.835-3.675h2.967v-5.79a36.153,36.153,0,0,0-5.268-.46c-5.374,0-8.887,3.257-8.887,9.155v5.184H77.733v6.8h5.975v16.443a23.783,23.783,0,0,0,7.353,0V1079.69Z" fill="#fff"/>
  </g>
</svg>
