<svg id="グループ_38677" data-name="グループ 38677" xmlns="http://www.w3.org/2000/svg" width="110.634" height="30.84" viewBox="0 0 110.634 30.84">
  <path id="パス_3653" data-name="パス 3653" d="M2.408,3.28H5.547V5.323H2.408ZM8.377,5.323H6.438V3.28h1.5V2.464H2.408V1.509c.422-.037.855-.082,1.289-.134s.869-.111,1.294-.178S5.83,1.056,6.223.974,6.988.8,7.328.7L6.578.009c-.26.077-.562.152-.894.224s-.694.139-1.075.2S3.831.558,3.427.61,2.614.71,2.211.75L1.509.59V5.323H.009v.834H8.377ZM2.7,6.306a5.98,5.98,0,0,1-.542.436c-.207.15-.437.3-.678.449S.987,7.48.737,7.61s-.5.248-.737.346c.052.045.108.1.167.153s.118.117.176.177.114.122.164.181.095.114.13.163c.239-.108.49-.232.745-.368s.512-.283.763-.436.5-.313.726-.475.444-.324.634-.483Zm2.174.6c.232.124.486.264.745.412s.524.3.778.457.5.309.715.454.407.282.555.4L8.4,7.956c-.166-.119-.371-.254-.6-.394s-.479-.288-.737-.435-.524-.292-.781-.428-.506-.263-.731-.373ZM17.739,1.556V.778H14.281V.009h-.909V.778H9.98V3.739c0,.33,0,.69-.022,1.065s-.049.762-.1,1.148a7.577,7.577,0,0,1-.245,1.136,4.645,4.645,0,0,1-.444,1.028c.047.023.1.057.166.1s.129.084.194.131.13.1.187.142a1.892,1.892,0,0,1,.145.128,5.074,5.074,0,0,0,.492-1.122,8.812,8.812,0,0,0,.287-1.272c.067-.435.109-.873.134-1.293S10.8,4.1,10.8,3.739V1.556Zm-5.4,4.151V5.1h1.49v.609Zm0-1.734h1.49v.59h-1.49Zm3.889,0v.59H14.665v-.59Zm0,1.734H14.665V5.1H16.23ZM17.8,6.831H14.665V6.26h2.371V3.411H14.665V2.877h2.83V2.2h-2.83V1.6h-.834v.6H11.254v.675h2.577v.534H11.563V6.26h2.268v.572h-2.97v.722h2.97V8.621h.834V7.553H17.8ZM24.664,4.46v2.8H21.815c.045-.2.091-.41.138-.63s.1-.45.146-.686.1-.48.152-.729.1-.5.154-.757Zm.9,2.8V3.608h-3l.091-.476q.045-.237.089-.471t.086-.464q.042-.23.081-.455h3.523V.89H19.369v.853h2.568q-.035.221-.073.451t-.079.464q-.04.235-.082.473l-.084.477H19.706V4.46h1.743c-.049.253-.1.5-.149.751s-.1.49-.151.727-.1.467-.151.688-.1.434-.149.635H18.8v.862h8.274V7.262Zm8.4-1.359.572-.347c-.045-.066-.1-.141-.166-.222s-.139-.167-.217-.255-.16-.175-.243-.26-.166-.165-.246-.238l-.553.3c.077.077.158.162.237.249s.158.178.233.269.144.18.206.265a2.857,2.857,0,0,1,.158.239H32.647V4.517H34.4v-.74H32.647V2.643h1.958V1.874H29.93v.768h1.9V3.776H30.173v.74h1.659V5.9H29.8v.722h4.995V5.9ZM29.293,7.347V1.218h5.941V7.347ZM28.412.412v8.2h.881V8.152h5.941v.459h.928V.412ZM42.655,6.569c0-.11-.005-.239-.008-.378l-.01-.443c0-.153-.007-.308-.01-.458s-.006-.295-.008-.426c.162-.075.32-.147.475-.216s.305-.134.45-.2.285-.119.419-.173.261-.1.38-.147l.229-.09.25-.093c.084-.03.167-.06.244-.086s.15-.05.214-.069l-.365-.862-.221.108-.216.1-.218.1-.226.1-.338.149-.358.156c-.123.054-.25.11-.382.17s-.269.123-.412.191a1.124,1.124,0,0,0-.187-.34,1.1,1.1,0,0,0-.281-.246,1.294,1.294,0,0,0-.356-.15,1.647,1.647,0,0,0-.413-.051,2.6,2.6,0,0,0-.3.019c-.105.012-.214.03-.321.054a2.7,2.7,0,0,0-.307.086,1.5,1.5,0,0,0-.256.114c.068-.091.134-.187.2-.285s.126-.2.185-.3.116-.206.169-.311.1-.208.151-.311c.251-.009.51-.021.772-.036s.528-.032.79-.052.522-.044.772-.072.493-.058.72-.094V1.171c-.213.037-.434.071-.66.1s-.456.055-.689.078-.467.041-.7.057-.467.028-.7.037c.033-.1.062-.2.088-.292s.05-.184.071-.269.04-.165.057-.239L41.4.44,40.434.365c0,.073-.013.152-.024.237s-.027.176-.045.271-.04.194-.064.3-.052.206-.082.311h-.543c-.11,0-.234,0-.366-.007s-.272-.011-.413-.02-.284-.02-.422-.032-.271-.027-.393-.044v.871c.129.009.266.018.4.025s.28.013.417.018.27.008.393.011.235,0,.331,0H39.9c-.1.194-.207.4-.337.606s-.278.427-.449.653-.363.459-.581.7-.461.491-.733.749l.8.6q.116-.148.225-.284t.215-.261q.105-.125.208-.237t.2-.211a2.739,2.739,0,0,1,.324-.258,2.607,2.607,0,0,1,.374-.212,2.23,2.23,0,0,1,.409-.143,1.838,1.838,0,0,1,.43-.053,1.111,1.111,0,0,1,.244.026.8.8,0,0,1,.216.081.626.626,0,0,1,.173.142.65.65,0,0,1,.117.21c-.267.136-.537.283-.792.445a4.609,4.609,0,0,0-.7.534,2.428,2.428,0,0,0-.5.647,1.694,1.694,0,0,0-.191.782,1.214,1.214,0,0,0,.712,1.168,2.7,2.7,0,0,0,.782.236,6.148,6.148,0,0,0,.97.068c.208,0,.432,0,.66-.013s.461-.02.689-.035.451-.032.659-.051.4-.039.57-.06l.028-.946c-.2.037-.42.071-.641.1s-.448.056-.672.077-.447.037-.66.049-.417.017-.6.017a5.736,5.736,0,0,1-.635-.029,1.828,1.828,0,0,1-.484-.112.679.679,0,0,1-.309-.231.655.655,0,0,1-.108-.387.884.884,0,0,1,.09-.387,1.351,1.351,0,0,1,.257-.354,2.82,2.82,0,0,1,.4-.335c.157-.11.336-.219.533-.329,0,.115,0,.234,0,.352s0,.237-.006.352-.007.224-.012.325-.011.194-.018.273ZM54.312.469c-.091.122-.2.253-.32.387s-.249.272-.383.407-.271.266-.4.389-.264.236-.383.335l.647.422c.124-.094.255-.2.39-.315s.272-.238.41-.367.275-.263.408-.4.263-.274.385-.409Zm-5.238,1.5a3.1,3.1,0,0,0-.285-.35c-.112-.122-.24-.246-.376-.369S48.133,1,47.988.89,47.7.668,47.556.572l-.6.506c.141.1.286.218.429.339s.284.248.417.376.256.256.364.379a3.194,3.194,0,0,1,.271.349Zm-.131.843-.621.343-.6.327c-.192.1-.375.2-.545.292s-.328.17-.468.237l.431.722.48-.281.512-.3c.174-.1.35-.209.525-.316s.348-.213.517-.318Zm1.143.253H51.96v.825H50.086Zm0-1.452H51.96v.815H50.086Zm5.079,4.432V5.276H51.454V4.563H52.8v-1.2c.178.1.366.2.554.317s.377.233.557.353.351.239.5.353.286.221.391.317l.543-.656a5.232,5.232,0,0,0-.431-.326c-.166-.115-.352-.234-.545-.351s-.393-.233-.588-.34-.387-.208-.563-.295l-.422.478V.937H51.285l.073-.189.078-.2.08-.207c.026-.07.053-.14.079-.21L50.639,0c-.012.068-.026.141-.043.218s-.035.156-.055.237S50.5.617,50.478.7s-.043.161-.064.239H49.28V4.563h1.293v.712H46.919v.768h2.9a6.366,6.366,0,0,1-.671.533,8.369,8.369,0,0,1-.774.476c-.27.147-.55.281-.831.4a8.6,8.6,0,0,1-.845.306c.047.045.1.1.151.158s.107.124.16.189.1.132.15.2.087.125.12.179a8.535,8.535,0,0,0,.891-.378,9.274,9.274,0,0,0,.873-.49,8.7,8.7,0,0,0,.813-.583,7.144,7.144,0,0,0,.712-.658V8.593h.881V6.4a7.075,7.075,0,0,0,.72.631A8.741,8.741,0,0,0,53,7.59a9.349,9.349,0,0,0,.883.468,8.548,8.548,0,0,0,.9.357c.033-.056.074-.119.12-.184s.1-.133.151-.2.109-.131.163-.19.108-.113.157-.158c-.288-.08-.581-.177-.871-.289a9.313,9.313,0,0,1-.851-.38,7.893,7.893,0,0,1-.784-.455,5.672,5.672,0,0,1-.67-.516Zm2.7-5.51c.016.077.03.159.042.243s.022.172.029.263.013.183.017.277.005.189.005.286c0,.225-.006.543-.015.914s-.02.8-.032,1.233-.023.888-.032,1.312-.015.821-.015,1.151a2.6,2.6,0,0,0,.17.984,1.665,1.665,0,0,0,.48.666,2,2,0,0,0,.745.377,3.574,3.574,0,0,0,.966.119,4.854,4.854,0,0,0,1.407-.2,4.519,4.519,0,0,0,1.114-.509,4.862,4.862,0,0,0,.84-.674,5.276,5.276,0,0,0,.585-.7L63.5,5.463a5.781,5.781,0,0,1-.561.718,4.018,4.018,0,0,1-.708.611,3.371,3.371,0,0,1-.889.424,3.729,3.729,0,0,1-1.1.159,2.106,2.106,0,0,1-.557-.068,1.218,1.218,0,0,1-.449-.223,1.017,1.017,0,0,1-.3-.405,1.59,1.59,0,0,1-.109-.616c0-.323,0-.7.012-1.1s.018-.819.03-1.231.025-.816.037-1.182.024-.692.033-.95c0-.082.01-.168.016-.256s.013-.179.021-.27S59,.895,59.007.805s.023-.177.037-.262ZM71.339,4.048a3.683,3.683,0,0,1,.427.443,2.859,2.859,0,0,1,.308.464,2.247,2.247,0,0,1,.187.474,1.863,1.863,0,0,1,.063.474,1.242,1.242,0,0,1-.149.6,1.354,1.354,0,0,1-.429.464,2.143,2.143,0,0,1-.684.3,3.662,3.662,0,0,1-.913.106,2.128,2.128,0,0,1-.65-.091,1.216,1.216,0,0,1-.462-.262A1.076,1.076,0,0,1,68.76,6.6a1.6,1.6,0,0,1-.092-.56c0-.049,0-.1,0-.163s.005-.123.01-.191.009-.14.015-.216.012-.155.019-.237h.356q.225,0,.443-.005t.434-.017q.215-.011.429-.029t.428-.042l.028-.881c-.159.021-.32.039-.482.053s-.323.026-.483.035-.32.015-.476.019-.311.006-.461.006H68.8c.014-.122.029-.245.044-.37s.031-.249.046-.374.032-.249.048-.372.033-.245.049-.364h.019c.19,0,.365,0,.53-.007s.32-.011.469-.019.293-.018.436-.03.284-.024.43-.038l.028-.881c-.122.021-.252.039-.389.055s-.282.028-.433.038-.309.017-.472.022-.332.007-.505.007l.112-.843c.009-.056.019-.112.029-.168s.02-.113.031-.173.023-.12.036-.185.028-.133.044-.205L68.3.412c.007.066.011.129.013.192s0,.124,0,.184,0,.12-.009.179-.009.118-.013.176-.01.121-.016.188-.012.136-.019.21-.015.15-.023.229-.017.161-.026.246c-.173-.014-.348-.032-.522-.053s-.347-.047-.515-.076-.333-.063-.491-.1-.308-.08-.449-.127l-.047.862c.141.037.289.073.444.107s.315.064.478.093.33.053.5.075.335.04.5.054c-.016.122-.033.245-.049.37s-.032.25-.048.375-.031.251-.046.375-.03.248-.044.37c-.159-.014-.32-.031-.482-.052s-.323-.046-.483-.076-.32-.065-.476-.106-.311-.088-.461-.142l-.047.9c.131.04.27.076.415.109s.3.063.453.09.318.051.483.072.334.04.5.057c-.009.1-.018.2-.026.3s-.015.184-.021.268-.011.163-.014.237,0,.141,0,.2a2.434,2.434,0,0,0,.182.977,1.7,1.7,0,0,0,.5.66A2.1,2.1,0,0,0,69.2,8.2a3.508,3.508,0,0,0,.941.118,4.857,4.857,0,0,0,1.3-.165,3.1,3.1,0,0,0,1-.467,2.125,2.125,0,0,0,.641-.727,2.012,2.012,0,0,0,.226-.945,2.764,2.764,0,0,0-.058-.573,2.728,2.728,0,0,0-.175-.54,3.555,3.555,0,0,0-.293-.529,5.746,5.746,0,0,0-.411-.541Zm9.417.712A1.991,1.991,0,0,1,80.48,5.8a2.426,2.426,0,0,1-.777.779,4.71,4.71,0,0,1-1.2.538,9.3,9.3,0,0,1-1.557.316l.543.909A8.467,8.467,0,0,0,79.2,7.913a5.169,5.169,0,0,0,1.359-.733,3.211,3.211,0,0,0,.9-1.038A2.845,2.845,0,0,0,81.777,4.8a2.3,2.3,0,0,0-.178-.919,1.886,1.886,0,0,0-.5-.68,2.186,2.186,0,0,0-.756-.421,3.061,3.061,0,0,0-.958-.145,7,7,0,0,0-.792.048c-.259.03-.512.071-.752.116s-.468.1-.678.144-.4.095-.571.132l-.223.043c-.077.014-.157.028-.237.041s-.159.025-.237.034-.152.017-.223.022l.29,1.068.194-.074.209-.078c.071-.026.144-.051.216-.074s.144-.045.215-.064c.129-.037.282-.086.456-.136s.369-.1.58-.154.44-.094.68-.126a5.711,5.711,0,0,1,.757-.052,1.964,1.964,0,0,1,.619.093,1.367,1.367,0,0,1,.466.258,1.123,1.123,0,0,1,.294.392A1.2,1.2,0,0,1,80.756,4.76ZM76.97.459l-.141.89c.265.047.584.093.93.137s.72.086,1.093.125.746.074,1.091.1.663.055.925.074l.15-.909c-.234,0-.539-.016-.88-.038s-.72-.054-1.1-.092S78.269.668,77.914.619,77.233.515,76.97.459Z" transform="translate(0.937)" fill="#333"/>
  <g id="download" transform="translate(0 14.008)">
    <path id="パス_3249" data-name="パス 3249" d="M12.416,16.462q-.768-.808-1.553-1.666T9.267,13.036q-.81-.9-1.648-1.849L5.9,9.256a3.862,3.862,0,0,0-.424-.4,1.565,1.565,0,0,0-.353-.215.972.972,0,0,0-.318-.076,1.384,1.384,0,0,0-.32.02v4.7a7.877,7.877,0,0,0,.071,1.276,1.272,1.272,0,0,0,.319.716,1.4,1.4,0,0,0,.728.339,9.659,9.659,0,0,0,1.3.145v.7H.079v-.7a8.108,8.108,0,0,0,1.185-.145,1.237,1.237,0,0,0,.665-.339,1.328,1.328,0,0,0,.291-.716,8.639,8.639,0,0,0,.064-1.276v-9.7A9.119,9.119,0,0,0,2.22,2.263a1.318,1.318,0,0,0-.3-.729A1.265,1.265,0,0,0,1.233,1.2,9.289,9.289,0,0,0,0,1.061v-.7H6.775v.7a8.427,8.427,0,0,0-1.212.146,1.305,1.305,0,0,0-.69.344,1.351,1.351,0,0,0-.31.731,8.244,8.244,0,0,0-.072,1.3V7.92a2.341,2.341,0,0,0,.427-.136,3.139,3.139,0,0,0,.431-.227,5.424,5.424,0,0,0,.461-.325c.161-.125.332-.268.516-.429.361-.328.741-.683,1.128-1.052S8.232,5,8.616,4.617s.76-.769,1.114-1.143.685-.737.979-1.077a4.11,4.11,0,0,0,.432-.556.48.48,0,0,0,.1-.363c-.028-.094-.117-.165-.273-.219a3.193,3.193,0,0,0-.676-.124l-.6-.073v-.7h6.3v.7a12.524,12.524,0,0,0-1.263.162,4.672,4.672,0,0,0-.982.294,5.048,5.048,0,0,0-.923.53c-.323.228-.672.513-1.086.872-.255.216-.563.49-.909.8s-.73.672-1.137,1.054-.837.79-1.276,1.208L7.083,7.252c.493.588,1.042,1.219,1.61,1.857S9.848,10.389,10.414,11s1.111,1.191,1.6,1.7.913.951,1.241,1.285c.348.352.642.63.906.852a4.45,4.45,0,0,0,.731.512,3.046,3.046,0,0,0,.707.276,6.326,6.326,0,0,0,.833.145v.7H12.416Zm4.855,0v-.645a6.991,6.991,0,0,0,.985-.134,1.078,1.078,0,0,0,.553-.28,1.043,1.043,0,0,0,.243-.568,6.372,6.372,0,0,0,.054-1v-5.1a7.164,7.164,0,0,0-.037-.912.969.969,0,0,0-.2-.523.983.983,0,0,0-.5-.276,7.012,7.012,0,0,0-.924-.17V6.258q.5-.074.987-.171t.954-.219q.468-.121.915-.265t.87-.31v8.543a6.229,6.229,0,0,0,.055,1,1.032,1.032,0,0,0,.247.567,1.107,1.107,0,0,0,.562.279,7.315,7.315,0,0,0,1,.137v.645ZM18.663,1.925a1.243,1.243,0,0,1,.109-.513A1.271,1.271,0,0,1,19.065,1a1.358,1.358,0,0,1,.426-.268,1.4,1.4,0,0,1,1.022,0A1.276,1.276,0,0,1,20.931,1a1.235,1.235,0,0,1,.279.407,1.312,1.312,0,0,1,.1.513,1.186,1.186,0,0,1-.1.479,1.287,1.287,0,0,1-.282.4,1.342,1.342,0,0,1-.424.278,1.383,1.383,0,0,1-.528.1,1.26,1.26,0,0,1-.494-.1,1.41,1.41,0,0,1-.419-.278,1.347,1.347,0,0,1-.291-.4A1.135,1.135,0,0,1,18.663,1.925ZM30.494,8.588a5.654,5.654,0,0,0-.462-1.011,3.565,3.565,0,0,0-.6-.773,2.46,2.46,0,0,0-.747-.495,2.3,2.3,0,0,0-.892-.174,1.878,1.878,0,0,0-.7.128,1.555,1.555,0,0,0-.886.9,1.881,1.881,0,0,0-.123.683,1.493,1.493,0,0,0,.182.726,1.982,1.982,0,0,0,.487.571,4.006,4.006,0,0,0,.7.454c.261.136.543.259.832.376a12.035,12.035,0,0,1,1.362.611A5.245,5.245,0,0,1,30.7,11.3a2.846,2.846,0,0,1,.679.9,2.646,2.646,0,0,1,.241,1.138,2.959,2.959,0,0,1-.382,1.484,3.31,3.31,0,0,1-1,1.07,4.689,4.689,0,0,1-1.391.647,5.71,5.71,0,0,1-1.563.218,6.074,6.074,0,0,1-.969-.079,6.267,6.267,0,0,1-.862-.2,4.969,4.969,0,0,1-.694-.272,2.367,2.367,0,0,1-.467-.288,2.283,2.283,0,0,1-.148-.478c-.051-.221-.1-.492-.146-.78s-.083-.593-.111-.882-.044-.561-.044-.784l.707-.123a5.511,5.511,0,0,0,.468,1.169,4.461,4.461,0,0,0,.711.979,3.2,3.2,0,0,0,.923.673,2.563,2.563,0,0,0,1.1.25,2.072,2.072,0,0,0,.7-.121,1.866,1.866,0,0,0,.6-.346,1.642,1.642,0,0,0,.413-.546,1.7,1.7,0,0,0,.155-.721,1.778,1.778,0,0,0-.545-1.321,3.294,3.294,0,0,0-.651-.492,7.664,7.664,0,0,0-.875-.438c-.394-.167-.8-.345-1.178-.547a5.889,5.889,0,0,1-1.055-.693,3.091,3.091,0,0,1-.759-.921A2.61,2.61,0,0,1,24.27,8.56a2.817,2.817,0,0,1,.284-1.234A3.131,3.131,0,0,1,25.36,6.3a3.886,3.886,0,0,1,1.259-.7,5.083,5.083,0,0,1,1.642-.259A6.885,6.885,0,0,1,29,5.382a5.713,5.713,0,0,1,.621.1,5.319,5.319,0,0,1,.518.142c.157.052.3.107.432.162a4.423,4.423,0,0,1,.183.556c.061.225.121.481.176.738s.1.516.141.747.066.436.078.585Zm8.425,0a5.654,5.654,0,0,0-.462-1.011,3.565,3.565,0,0,0-.6-.773,2.46,2.46,0,0,0-.747-.495,2.3,2.3,0,0,0-.892-.174,1.878,1.878,0,0,0-.7.128,1.555,1.555,0,0,0-.886.9,1.881,1.881,0,0,0-.123.683,1.493,1.493,0,0,0,.182.726,1.981,1.981,0,0,0,.487.571,4.006,4.006,0,0,0,.7.454c.261.136.543.259.832.376a12.036,12.036,0,0,1,1.362.611,5.245,5.245,0,0,1,1.053.722,2.846,2.846,0,0,1,.679.9,2.646,2.646,0,0,1,.241,1.138,2.959,2.959,0,0,1-.382,1.484,3.31,3.31,0,0,1-1,1.07,4.689,4.689,0,0,1-1.391.647,5.71,5.71,0,0,1-1.563.218,6.074,6.074,0,0,1-.969-.079,6.267,6.267,0,0,1-.862-.2,4.969,4.969,0,0,1-.694-.272,2.367,2.367,0,0,1-.467-.288,2.283,2.283,0,0,1-.148-.478c-.051-.221-.1-.492-.146-.78s-.083-.593-.111-.882-.044-.561-.044-.784l.707-.123a5.511,5.511,0,0,0,.468,1.169,4.461,4.461,0,0,0,.711.979,3.2,3.2,0,0,0,.923.673,2.563,2.563,0,0,0,1.1.25,2.072,2.072,0,0,0,.7-.121,1.866,1.866,0,0,0,.6-.346,1.642,1.642,0,0,0,.413-.546,1.7,1.7,0,0,0,.155-.721,1.778,1.778,0,0,0-.545-1.321,3.3,3.3,0,0,0-.651-.492,7.664,7.664,0,0,0-.875-.438c-.394-.167-.8-.345-1.178-.547a5.889,5.889,0,0,1-1.055-.693,3.091,3.091,0,0,1-.759-.921,2.61,2.61,0,0,1-.291-1.229,2.817,2.817,0,0,1,.284-1.234A3.131,3.131,0,0,1,33.785,6.3a3.886,3.886,0,0,1,1.259-.7,5.083,5.083,0,0,1,1.642-.259,6.885,6.885,0,0,1,.742.039,5.713,5.713,0,0,1,.621.1,5.32,5.32,0,0,1,.518.142c.157.052.3.107.432.162a4.424,4.424,0,0,1,.183.556c.061.225.121.481.176.738s.1.516.141.747.066.436.078.585ZM51.542.365q.7,0,1.331.058A9.71,9.71,0,0,1,54.065.6,6.529,6.529,0,0,1,55.1.919a4.569,4.569,0,0,1,.874.462,4.116,4.116,0,0,1,.693.632A3.819,3.819,0,0,1,57.2,2.8a4.1,4.1,0,0,1,.337.951,5.1,5.1,0,0,1,.119,1.121,4.973,4.973,0,0,1-.438,2.11,4.506,4.506,0,0,1-1.157,1.523,5.718,5.718,0,0,1-1.639.975,7.465,7.465,0,0,1-1.884.465c-.1.013-.2.022-.31.029s-.215.011-.32.012-.206,0-.3,0-.178-.008-.25-.015L49.415,9.5v3.89a7.045,7.045,0,0,0,.074,1.238,1.142,1.142,0,0,0,.339.684,1.586,1.586,0,0,0,.783.318,12.757,12.757,0,0,0,1.4.14v.7H44.9v-.7a8.707,8.707,0,0,0,1.247-.148,1.341,1.341,0,0,0,.7-.337,1.255,1.255,0,0,0,.3-.7,7.723,7.723,0,0,0,.066-1.221v-9.9a8.8,8.8,0,0,0-.063-1.277,1.255,1.255,0,0,0-.284-.695,1.173,1.173,0,0,0-.648-.31,8.877,8.877,0,0,0-1.155-.121v-.7ZM49.415,8.689c.086.031.194.065.322.1s.275.067.439.1.344.055.537.073.4.029.616.029A4.626,4.626,0,0,0,52.644,8.8a3.473,3.473,0,0,0,1.228-.642,3.2,3.2,0,0,0,.908-1.232,4.95,4.95,0,0,0,.355-1.955,4.4,4.4,0,0,0-.317-1.723,3.156,3.156,0,0,0-.858-1.185A3.565,3.565,0,0,0,52.7,1.382a5.1,5.1,0,0,0-1.526-.22c-.184,0-.356.008-.514.022a3.79,3.79,0,0,0-.428.061,1.924,1.924,0,0,0-.324.094.665.665,0,0,0-.2.12.47.47,0,0,0-.132.142.793.793,0,0,0-.089.224,2.071,2.071,0,0,0-.05.332c-.011.131-.016.284-.016.464V8.689Zm23.939,7.97h-.235l-.233,0-.229-.007q-.113,0-.223-.013a7.892,7.892,0,0,1-1.339-.169A4.419,4.419,0,0,1,70,16.075a4.294,4.294,0,0,1-.94-.675,7.293,7.293,0,0,1-.884-1.015c-.23-.3-.462-.627-.692-.96s-.459-.677-.683-1.021-.445-.688-.658-1.021-.42-.657-.616-.96a2.657,2.657,0,0,0-.35-.448,1.548,1.548,0,0,0-.432-.307,2.181,2.181,0,0,0-.6-.176,5.412,5.412,0,0,0-.852-.056h-.842V13.37a7.657,7.657,0,0,0,.069,1.242,1.23,1.23,0,0,0,.308.692,1.347,1.347,0,0,0,.7.325,9.56,9.56,0,0,0,1.237.143v.7H57.89v-.7a9.929,9.929,0,0,0,1.276-.141,1.368,1.368,0,0,0,.712-.326,1.216,1.216,0,0,0,.308-.693,7.829,7.829,0,0,0,.067-1.243V3.413a7.917,7.917,0,0,0-.064-1.231,1.161,1.161,0,0,0-.3-.669,1.311,1.311,0,0,0-.68-.307A11.028,11.028,0,0,0,58,1.061v-.7h6.511c.479,0,.918.014,1.323.045a9.661,9.661,0,0,1,1.118.145,5.874,5.874,0,0,1,.941.26,4.252,4.252,0,0,1,.793.392,3.668,3.668,0,0,1,.729.57,3.431,3.431,0,0,1,.553.736,3.613,3.613,0,0,1,.351.894,4.312,4.312,0,0,1,.123,1.044A4.091,4.091,0,0,1,70.189,5.9a3.918,3.918,0,0,1-.7,1.173A5.207,5.207,0,0,1,68.435,8a8,8,0,0,1-1.328.712c.112.2.265.45.444.734s.383.6.6.928.44.663.661.988.437.637.633.914c.236.321.446.6.638.854s.367.473.533.674.323.383.479.554.313.333.477.494a4.7,4.7,0,0,0,.5.474,3.655,3.655,0,0,0,.483.33,3.355,3.355,0,0,0,.463.219,3.887,3.887,0,0,0,.443.139ZM63.722,8.638c.328,0,.629-.012.9-.039a5.261,5.261,0,0,0,.759-.125,3.366,3.366,0,0,0,.636-.222,2.735,2.735,0,0,0,.535-.332,3.636,3.636,0,0,0,.656-.6,3.112,3.112,0,0,0,.448-.708,3.532,3.532,0,0,0,.256-.819A5.043,5.043,0,0,0,68,4.849a4.2,4.2,0,0,0-.322-1.7,3,3,0,0,0-.856-1.135A3.505,3.505,0,0,0,65.6,1.381a5.017,5.017,0,0,0-1.43-.2c-.191,0-.362.006-.514.018a3.8,3.8,0,0,0-.4.051,1.949,1.949,0,0,0-.3.078.9.9,0,0,0-.2.1.41.41,0,0,0-.132.125.675.675,0,0,0-.089.207,1.824,1.824,0,0,0-.05.313c-.011.125-.016.271-.016.444V8.638ZM87.369,12.55c-.039.2-.1.5-.177.849s-.163.736-.254,1.126-.183.778-.269,1.117-.162.628-.221.82H73.8v-.7a11.361,11.361,0,0,0,1.415-.163,1.6,1.6,0,0,0,.781-.341,1.178,1.178,0,0,0,.333-.69,7.049,7.049,0,0,0,.07-1.208V3.508a8.738,8.738,0,0,0-.064-1.293,1.252,1.252,0,0,0-.3-.7,1.262,1.262,0,0,0-.68-.319,9.944,9.944,0,0,0-1.217-.137V.365H85.848c0,.154.008.375.021.64s.032.572.053.9.045.676.068,1.021.046.687.066,1l-.763.1c-.059-.26-.12-.488-.183-.694s-.129-.387-.2-.553a4.867,4.867,0,0,0-.218-.456c-.077-.141-.157-.273-.243-.4a1.154,1.154,0,0,0-.352-.342,1.866,1.866,0,0,0-.56-.221,5.269,5.269,0,0,0-.845-.119c-.338-.025-.736-.036-1.207-.036H79.494a3.416,3.416,0,0,0-.478.023.464.464,0,0,0-.259.1.4.4,0,0,0-.106.238A2.871,2.871,0,0,0,78.63,2V7.645H81.1a12.015,12.015,0,0,0,1.407-.057,1.743,1.743,0,0,0,.789-.249,1.1,1.1,0,0,0,.4-.561,6.468,6.468,0,0,0,.239-.991H84.7v4.732h-.763a6.455,6.455,0,0,0-.262-1.039,1.158,1.158,0,0,0-.415-.574,1.708,1.708,0,0,0-.778-.244,11.973,11.973,0,0,0-1.352-.051H78.635v4.681c0,.29.01.542.032.761a2.922,2.922,0,0,0,.106.565,1.345,1.345,0,0,0,.194.4,1.063,1.063,0,0,0,.3.275,1.538,1.538,0,0,0,.453.185,3.865,3.865,0,0,0,.608.095c.228.02.481.03.759.035s.581,0,.908,0c.5,0,.918-.012,1.276-.041a5.39,5.39,0,0,0,.908-.138,2.368,2.368,0,0,0,.642-.259,2.074,2.074,0,0,0,.48-.4,4.276,4.276,0,0,0,.343-.437c.115-.166.231-.351.344-.551s.223-.415.329-.64.206-.46.3-.7ZM97.517,4.1A9.317,9.317,0,0,0,97.1,2.934a4.293,4.293,0,0,0-.644-1.05,2.864,2.864,0,0,0-1-.757A3.526,3.526,0,0,0,93.981.836a3.655,3.655,0,0,0-1.344.234,2.607,2.607,0,0,0-.933.615,2.519,2.519,0,0,0-.544.865,2.8,2.8,0,0,0-.176.985,2.913,2.913,0,0,0,.236,1.2,2.957,2.957,0,0,0,.679.942,5.848,5.848,0,0,0,1.079.79c.421.249.9.489,1.436.738s1.092.516,1.629.809a9.012,9.012,0,0,1,1.505,1,4.5,4.5,0,0,1,1.105,1.333,3.817,3.817,0,0,1,.43,1.81,4.05,4.05,0,0,1-.431,1.828,4.519,4.519,0,0,1-1.219,1.487,5.886,5.886,0,0,1-1.892,1,7.978,7.978,0,0,1-2.452.366c-.276,0-.54-.012-.789-.033s-.485-.051-.706-.087-.428-.076-.619-.119-.369-.088-.53-.131-.32-.1-.457-.147-.259-.1-.368-.141-.206-.088-.293-.128L89.1,15.94a5.7,5.7,0,0,1-.168-.653c-.062-.291-.13-.643-.2-1.016s-.135-.767-.2-1.142-.12-.731-.168-1.028l.808-.174a7.32,7.32,0,0,0,.468,1.264A5.909,5.909,0,0,0,90.49,14.5a4.226,4.226,0,0,0,1.3,1.026,4,4,0,0,0,1.819.415,4.216,4.216,0,0,0,1.37-.21,2.813,2.813,0,0,0,1.017-.6,2.548,2.548,0,0,0,.633-.936,3.321,3.321,0,0,0,.218-1.226,2.739,2.739,0,0,0-.264-1.212,3.13,3.13,0,0,0-.732-.95,6.619,6.619,0,0,0-1.111-.791c-.424-.249-.9-.488-1.4-.735-.432-.216-.926-.454-1.425-.734a9.124,9.124,0,0,1-1.449-.981,4.753,4.753,0,0,1-1.125-1.343,3.752,3.752,0,0,1-.452-1.82,3.927,3.927,0,0,1,.379-1.692,4.181,4.181,0,0,1,1.1-1.4A5.276,5.276,0,0,1,92.107.354,7.422,7.422,0,0,1,94.447,0a8.941,8.941,0,0,1,.91.048c.3.03.587.074.87.126s.56.114.83.181.534.139.79.212c.027.216.055.44.086.679s.065.493.1.769.078.573.123.9.095.681.149,1.071l-.791.118Zm11.551,0a9.318,9.318,0,0,0-.417-1.169,4.292,4.292,0,0,0-.644-1.05,2.864,2.864,0,0,0-1-.757,3.526,3.526,0,0,0-1.478-.291,3.655,3.655,0,0,0-1.344.234,2.607,2.607,0,0,0-.933.615,2.519,2.519,0,0,0-.544.865,2.8,2.8,0,0,0-.176.985,2.912,2.912,0,0,0,.236,1.2,2.957,2.957,0,0,0,.679.942,5.848,5.848,0,0,0,1.079.79c.421.249.9.489,1.436.738s1.092.516,1.629.809a9.013,9.013,0,0,1,1.505,1,4.5,4.5,0,0,1,1.105,1.333,3.817,3.817,0,0,1,.43,1.81,4.05,4.05,0,0,1-.431,1.828,4.52,4.52,0,0,1-1.219,1.487,5.886,5.886,0,0,1-1.892,1,7.978,7.978,0,0,1-2.452.366c-.276,0-.54-.012-.789-.033s-.485-.051-.706-.087-.428-.076-.619-.119-.369-.088-.53-.131-.32-.1-.457-.147-.259-.1-.368-.141-.206-.088-.293-.128l-.229-.106a5.7,5.7,0,0,1-.168-.653c-.062-.291-.13-.643-.2-1.016s-.135-.767-.2-1.142-.12-.731-.168-1.028l.808-.174a7.32,7.32,0,0,0,.468,1.264,5.909,5.909,0,0,0,.846,1.309,4.226,4.226,0,0,0,1.3,1.026,4,4,0,0,0,1.819.415,4.216,4.216,0,0,0,1.37-.21,2.813,2.813,0,0,0,1.017-.6,2.548,2.548,0,0,0,.633-.936,3.322,3.322,0,0,0,.218-1.226,2.739,2.739,0,0,0-.264-1.212,3.13,3.13,0,0,0-.732-.95,6.619,6.619,0,0,0-1.111-.791c-.424-.249-.9-.488-1.4-.735-.432-.216-.926-.454-1.425-.734a9.124,9.124,0,0,1-1.449-.981,4.753,4.753,0,0,1-1.125-1.343,3.752,3.752,0,0,1-.452-1.82,3.927,3.927,0,0,1,.379-1.692,4.181,4.181,0,0,1,1.1-1.4,5.276,5.276,0,0,1,1.749-.957A7.423,7.423,0,0,1,106,0a8.941,8.941,0,0,1,.91.048c.3.03.587.074.87.126s.56.114.83.181.534.139.79.212c.027.216.055.44.086.679s.065.493.1.769.078.573.123.9.095.681.149,1.071l-.791.118Z" transform="translate(0 0)" fill="#222"/>
  </g>
</svg>
