<svg xmlns="http://www.w3.org/2000/svg" width="18" height="18" viewBox="0 0 18 18">
  <g id="グループ_38930" data-name="グループ 38930" transform="translate(-51 -187)">
    <g id="楕円形_49" data-name="楕円形 49" transform="translate(51 187)" fill="none" stroke="#333233" stroke-width="1">
      <circle cx="9" cy="9" r="9" stroke="none"/>
      <circle cx="9" cy="9" r="8.5" fill="none"/>
    </g>
    <g id="グループ_38915" data-name="グループ 38915" transform="translate(-190.335 -417.369)">
      <path id="パス_3800" data-name="パス 3800" d="M3.34,9.16A1.24,1.24,0,1,0,4.58,10.4,1.221,1.221,0,0,0,3.34,9.16Z" transform="translate(243.235 603.209)" fill="#333"/>
      <path id="パス_3801" data-name="パス 3801" d="M3.34,9.16A1.24,1.24,0,1,0,4.58,10.4,1.221,1.221,0,0,0,3.34,9.16Z" transform="translate(247.235 603.209)" fill="#333"/>
      <path id="パス_3802" data-name="パス 3802" d="M3.34,9.16A1.24,1.24,0,1,0,4.58,10.4,1.221,1.221,0,0,0,3.34,9.16Z" transform="translate(251.235 603.209)" fill="#333"/>
    </g>
  </g>
</svg>
