<svg xmlns="http://www.w3.org/2000/svg" width="45" height="45" viewBox="0 0 45 45">
  <g id="グループ_1678" data-name="グループ 1678" transform="translate(5284.665 -111.83)">
    <path id="パス_15786" data-name="パス 15786" d="M-5239.665,111.83h-39a6,6,0,0,0-6,6v39Z" fill="#c30d23"/>
    <g id="グループ_1677" data-name="グループ 1677">
      <path id="パス_15787" data-name="パス 15787" d="M-5278.32,132.953l.865-.866,3.459,1,1.329.48.027-.028c-.48-.39-1.1-.881-1.572-1.356l-1.668-1.668.8-.8,4.184,4.184-.86.859-3.465-1.012-1.329-.469-.028.028c.492.412,1.081.875,1.561,1.356l1.679,1.678-.8.8Z" fill="#fff"/>
      <path id="パス_15788" data-name="パス 15788" d="M-5273.345,127.977l2.6-2.6.7.7-1.753,1.753.967.966,1.489-1.489.7.7-1.49,1.49,1.119,1.12,1.817-1.817.7.7-2.664,2.664Z" fill="#fff"/>
      <path id="パス_15789" data-name="パス 15789" d="M-5269.556,124.188l.866-.865,2.379,1.7c.5.379,1.018.756,1.528,1.14l.022-.024c-.36-.532-.72-1.076-1.064-1.6l-1.548-2.534.722-.721,2.533,1.548c.521.337,1.06.7,1.6,1.064l.03-.028c-.39-.515-.774-1.026-1.146-1.523l-1.708-2.374.807-.807,3.4,4.968-1.053,1.054-2.545-1.594c-.4-.258-.783-.517-1.151-.783l-.023.023c.26.375.525.754.783,1.15l1.6,2.533-1.037,1.037Z" fill="#fff"/>
    </g>
  </g>
</svg>
