<svg id="プレゼントアイコン14" xmlns="http://www.w3.org/2000/svg" width="18.01" height="19.789" viewBox="0 0 18.01 19.789">
  <path id="パス_3823" data-name="パス 3823" d="M40.777,121.376l-2.012-.852a1.617,1.617,0,0,1-.86.408c-.066.011-.149.019-.243.025l2.231.944-1.775.751c.215.142.392.253.51.327.018.011.034.024.051.036l1.522-.644v2.719l-3.359,1.422c-.013.053-.025.1-.031.116a.846.846,0,0,1-.808.6.9.9,0,0,1-.492-.149l-3.348,1.417v-2.719l1.61-.682c-.116-.156-.224-.308-.33-.46l-1.556.659-1.343-.568c-.107.152-.218.3-.335.459l1.4.593v2.719l-3.192-1.351a.894.894,0,0,1-.37.083.844.844,0,0,1-.8-.579l-2.661-1.126V125.5l-.736-.312v-2.7l1.427.6a.952.952,0,0,1,.145-.113c.1-.06.236-.148.4-.256L24.1,122l2.436-1.031a2.974,2.974,0,0,1-.394-.033,1.635,1.635,0,0,1-.8-.36l-2.321.982v4.186l.736.312v6.136l8.191,3.467,8.346-3.532V125.98l.736-.311v-4.186Zm-9.167,13.236-7.024-2.973V126.12l7.024,2.973Zm7.854-3.038-7.3,3.09v-5.57l7.3-3.091Z" transform="translate(-23.021 -115.866)" fill="#333"/>
  <path id="パス_3824" data-name="パス 3824" d="M87.982,4.358a32.875,32.875,0,0,0,3.788-.112,19.953,19.953,0,0,1-4.251,3.48c-.143.089-.074.211.013.239s1.539.666,1.539.666a.293.293,0,0,1,.168.2s.364,1.586.4,1.715a.144.144,0,0,0,.247.042A16.309,16.309,0,0,0,93.653,4.7c.03,0,.06,0,.091,0s.06,0,.091,0A16.312,16.312,0,0,0,97.6,10.589a.144.144,0,0,0,.247-.042c.041-.129.4-1.715.4-1.715a.293.293,0,0,1,.168-.2s1.451-.638,1.539-.666.157-.15.013-.239a19.923,19.923,0,0,1-4.255-3.485,32.382,32.382,0,0,0,3.792.117.9.9,0,0,0,.73-1.16A11.411,11.411,0,0,0,98.775.364a.912.912,0,0,0-1.2-.215C96.816.737,95.634,1.7,95,2.225a1.47,1.47,0,0,0-2.515.021c-.575-.482-1.772-1.479-2.566-2.1a.912.912,0,0,0-1.2.215A11.412,11.412,0,0,0,87.252,3.2.9.9,0,0,0,87.982,4.358Z" transform="translate(-84.739 -0.001)" fill="#333"/>
</svg>
