<svg id="グループ_38485" data-name="グループ 38485" xmlns="http://www.w3.org/2000/svg" width="16.118" height="15.424" viewBox="0 0 16.118 15.424">
  <g id="楕円形_1" data-name="楕円形 1" fill="none" stroke-linecap="round">
    <path d="M6.251,0A6.232,6.232,0,1,1,3.818.491,6.231,6.231,0,0,1,6.251,0Z" stroke="none"/>
    <path d="M 6.251078128814697 10.50090503692627 C 6.83691930770874 10.50090503692627 7.395453929901123 10.38175201416016 7.903719902038574 10.16640472412109 C 8.411986351013184 9.951059341430664 8.86998462677002 9.639521598815918 9.254753112792969 9.254753112792969 C 9.639521598815918 8.86998462677002 9.951059341430664 8.411986351013184 10.16640472412109 7.903719902038574 C 10.38175201416016 7.395453929901123 10.50090503692627 6.83691930770874 10.50090503692627 6.251078128814697 C 10.50090503692627 5.665236949920654 10.38175201416016 5.106702327728271 10.16640472412109 4.598435878753662 C 9.951059341430664 4.090169429779053 9.639521598815918 3.632171392440796 9.254753112792969 3.247403621673584 C 8.86998462677002 2.862635612487793 8.411986351013184 2.551097631454468 7.903719902038574 2.33575177192688 C 7.395453929901123 2.120405912399292 6.83691930770874 2.001252174377441 6.251078128814697 2.001252174377441 C 5.665236949920654 2.001252174377441 5.106702327728271 2.120405912399292 4.598435878753662 2.33575177192688 C 4.090169429779053 2.551097631454468 3.632171392440796 2.862635612487793 3.247403621673584 3.247403621673584 C 2.862635612487793 3.632171392440796 2.551097631454468 4.090169429779053 2.33575177192688 4.598435878753662 C 2.120405912399292 5.106702327728271 2.001252174377441 5.665236949920654 2.001252174377441 6.251078128814697 C 2.001252174377441 6.83691930770874 2.120405912399292 7.395453929901123 2.33575177192688 7.903719902038574 C 2.551097631454468 8.411986351013184 2.862635612487793 8.86998462677002 3.247403621673584 9.254753112792969 C 3.632171392440796 9.639521598815918 4.090169429779053 9.951059341430664 4.598435878753662 10.16640472412109 C 5.106702327728271 10.38175201416016 5.665236949920654 10.50090503692627 6.251078128814697 10.50090503692627 M 6.251078128814697 12.50215530395508 C 5.387983798980713 12.50215530395508 4.565744400024414 12.32723712921143 3.817875862121582 12.01091480255127 C 3.070007085800171 11.69459438323975 2.396509170532227 11.23686981201172 1.83089816570282 10.6712589263916 C 1.265287160873413 10.1056489944458 0.8075629472732544 9.432149887084961 0.4912415146827698 8.684281349182129 C 0.1749200969934464 7.93641185760498 1.402854309162649e-06 7.114172458648682 1.402854309162649e-06 6.251078128814697 C 1.402854309162649e-06 5.387983798980713 0.1749200820922852 4.565744400024414 0.4912415742874146 3.817875862121582 C 0.8075630664825439 3.070007085800171 1.265287280082703 2.396509170532227 1.830898284912109 1.83089816570282 C 2.396509170532227 1.265287160873413 3.070007085800171 0.8075629472732544 3.817875862121582 0.4912415146827698 C 4.565744400024414 0.1749200969934464 5.387983798980713 1.402854309162649e-06 6.251078128814697 1.402854309162649e-06 C 7.114172458648682 1.402854309162649e-06 7.93641185760498 0.1749200820922852 8.684281349182129 0.4912415742874146 C 9.432149887084961 0.8075630664825439 10.1056489944458 1.265287280082703 10.6712589263916 1.830898284912109 C 11.23686981201172 2.396509170532227 11.69459438323975 3.070007085800171 12.01091480255127 3.817875862121582 C 12.32723712921143 4.565744400024414 12.50215530395508 5.387983798980713 12.50215530395508 6.251078128814697 C 12.50215530395508 7.114172458648682 12.32723712921143 7.93641185760498 12.01091480255127 8.684281349182129 C 11.69459438323975 9.432149887084961 11.23686981201172 10.1056489944458 10.6712589263916 10.6712589263916 C 10.1056489944458 11.23686981201172 9.432149887084961 11.69459438323975 8.684281349182129 12.01091480255127 C 7.93641185760498 12.32723712921143 7.114172458648682 12.50215530395508 6.251078128814697 12.50215530395508 Z" stroke="none" fill="#ccc"/>
  </g>
  <g id="パス_1" data-name="パス 1" transform="translate(9.465 8.77)" fill="none" stroke-linecap="round">
    <path d="M1.415,1.415,5.238,5.239" stroke="none"/>
    <path d="M 5.238137245178223 6.239129066467285 C 5.174132347106934 6.239129066467285 5.110127449035645 6.233021259307861 5.047099590301514 6.22080659866333 C 4.984072208404541 6.208591938018799 4.922021389007568 6.190269947052002 4.86143684387207 6.165840625762939 C 4.801340579986572 6.141411304473877 4.743198871612549 6.110874652862549 4.6875 6.074230670928955 C 4.631801128387451 6.037586688995361 4.579522132873535 5.994896411895752 4.53066349029541 5.946037769317627 L 0.7074733972549438 2.122664451599121 C 0.6097561120986938 2.024947166442871 0.5364680886268616 1.912083745002747 0.4876094460487366 1.79164707660675 C 0.4387507736682892 1.671149373054504 0.4143214523792267 1.543078660964966 0.4143214523792267 1.415068984031677 C 0.4143214523792267 1.287059307098389 0.4387507736682892 1.158988475799561 0.4876094460487366 1.038490891456604 C 0.5364680886268616 0.9180542230606079 0.6097561120986938 0.8051907420158386 0.7074733972549438 0.7075344920158386 C 0.7563320398330688 0.6587368845939636 0.8090994358062744 0.6159855723381042 0.8647983074188232 0.5793415904045105 C 0.9200085997581482 0.542697548866272 0.9781503677368164 0.5121608972549438 1.038735151290894 0.4877315759658813 C 1.098831295967102 0.4633022546768188 1.160881757736206 0.444980263710022 1.223909497261047 0.4327655732631683 C 1.286937117576599 0.4206120073795319 1.350942015647888 0.4145046770572662 1.414946794509888 0.4145046770572662 C 1.478951692581177 0.4145046770572662 1.542956471443176 0.4205509126186371 1.605984210968018 0.4327655732631683 C 1.669011831283569 0.444980263710022 1.731062293052673 0.4633022546768188 1.791158556938171 0.4877315759658813 C 1.851743221282959 0.5121608972549438 1.909885048866272 0.542697548866272 1.965095281600952 0.5793415904045105 C 2.020794153213501 0.6159855723381042 2.073561668395996 0.6587368845939636 2.122420310974121 0.7075955271720886 L 5.945610523223877 4.530969142913818 C 6.043327808380127 4.628625392913818 6.116615772247314 4.741488933563232 6.165474414825439 4.86192512512207 C 6.214333057403564 4.982422828674316 6.238762378692627 5.110493659973145 6.238762378692627 5.238503456115723 C 6.238762378692627 5.366513252258301 6.214333057403564 5.494584083557129 6.165474414825439 5.615081787109375 C 6.116615772247314 5.735517978668213 6.043327808380127 5.848381519317627 5.945610523223877 5.946098804473877 C 5.896751880645752 5.994957447052002 5.844472885131836 6.037647724151611 5.788774013519287 6.074230670928955 C 5.733075141906738 6.110874652862549 5.674933433532715 6.141411304473877 5.614837169647217 6.165840625762939 C 5.554252624511719 6.190269947052002 5.492202281951904 6.208591938018799 5.429174423217773 6.22080659866333 C 5.366146564483643 6.233021259307861 5.302141666412354 6.239129066467285 5.238137245178223 6.239129066467285 Z" stroke="none" fill="#ccc"/>
  </g>
</svg>
