<svg xmlns="http://www.w3.org/2000/svg" width="47.062" height="47.062" viewBox="0 0 47.062 47.062">
  <g id="グループ_1676" data-name="グループ 1676" transform="translate(-137.328 -1049.357)">
    <circle id="楕円形_19" data-name="楕円形 19" cx="23.531" cy="23.531" r="23.531" transform="translate(137.327 1049.357)" fill="#1d9bf0"/>
    <path id="パス_15785" data-name="パス 15785" d="M156.553,1085.3c10.434,0,16.139-8.644,16.139-16.14,0-.246-.005-.49-.016-.733a11.538,11.538,0,0,0,2.83-2.937,11.358,11.358,0,0,1-3.258.893,5.694,5.694,0,0,0,2.495-3.138,11.4,11.4,0,0,1-3.6,1.377,5.678,5.678,0,0,0-9.667,5.173,16.1,16.1,0,0,1-11.692-5.927,5.678,5.678,0,0,0,1.756,7.573,5.623,5.623,0,0,1-2.569-.71c0,.024,0,.048,0,.073a5.675,5.675,0,0,0,4.551,5.561,5.64,5.64,0,0,1-2.561.1,5.678,5.678,0,0,0,5.3,3.94,11.381,11.381,0,0,1-7.045,2.428,11.639,11.639,0,0,1-1.354-.078,16.061,16.061,0,0,0,8.7,2.548" fill="#fff"/>
  </g>
</svg>
