<svg xmlns="http://www.w3.org/2000/svg" viewBox="0 0 564 564"><defs><style>.cls-1{fill:#231815;}.cls-2{fill:#ccc;}.cls-3{fill:#e6e6e6;}.cls-4{fill:#eee;}</style></defs><g id="レイヤー_2" data-name="レイヤー 2"><g id="デザイン"><path class="cls-1" d="M282,0C126.26,0,0,126.26,0,282S126.26,564,282,564,564,437.74,564,282,437.74,0,282,0ZM463.73,463.73A257,257,0,1,1,182,45.19a254.39,254.39,0,0,1,85.08-19.75l14.2,39.06,1.5.5,14.38-39.55A256.75,256.75,0,0,1,539,282a256.19,256.19,0,0,1-75.27,181.73Z"/><path class="cls-2" d="M316.75,294.66a39.49,39.49,0,0,1-10.63,8.65,43.05,43.05,0,0,1-21,5.36c-22.84,0-41.73-17.11-42.2-38.16a29.57,29.57,0,0,1,.37-5.83s-2.82,21.05-2.72,23.12C241.17,309,260.06,326,282.81,326a42.88,42.88,0,0,0,21-5.36A39.36,39.36,0,0,0,314.4,312a35.79,35.79,0,0,0,8.36-18.33l2.45-17.2A36.79,36.79,0,0,1,316.75,294.66Z"/><path class="cls-3" d="M325.49,270.41c-.47-17.67-14-32.24-30.65-36.66-15.69-4.23-33.55.57-43.89,13.35a36.25,36.25,0,0,0-3.58,40c8,14.66,25,22.84,41.46,21.43C306.22,307.07,322.1,294.66,325,277A31.7,31.7,0,0,0,325.49,270.41Zm-5.64,6.68c-5,15-20.49,24-35.91,23.31-14.1-.57-27.73-9-33.28-22.28a31.89,31.89,0,0,1,6.87-34.69c10.43-10.62,27-13.34,40.7-8.08a36.93,36.93,0,0,1,19.27,16.73,31.82,31.82,0,0,1,2.35,25Z"/><ellipse class="cls-4" cx="284.75" cy="266.48" rx="33.84" ry="36.66" transform="translate(-18.88 511.24) rotate(-81.97)"/></g></g></svg>