<?xml version="1.0" encoding="utf-8"?>
<!-- Generator: Adobe Illustrator 24.2.1, SVG Export Plug-In . SVG Version: 6.00 Build 0)  -->
<svg version="1.1" id="レイヤー_1" xmlns="http://www.w3.org/2000/svg" xmlns:xlink="http://www.w3.org/1999/xlink" x="0px"
	 y="0px" viewBox="0 0 514 514" style="enable-background:new 0 0 514 514;" xml:space="preserve">
<style type="text/css">
	.st0{fill:#FFEFB1;}
	.st1{fill:#FFFFFF;}
	.st2{fill:#FFB90A;}
	.st3{fill:#FED81B;}
</style>
<g>
	<path class="st0" d="M257,514C257,514,257,514,257,514c71,0,135.2-28.8,181.7-75.3L257,257V514z"/>
	<path class="st1" d="M75.3,438.7C121.8,485.2,186,514,257,514V257L75.3,438.7z"/>
	<path class="st0" d="M0,257C0,257,0,257,0,257c0,71,28.8,135.2,75.3,181.7L257,257H0z"/>
	<path class="st1" d="M75.3,75.3C28.8,121.8,0,186,0,257h257L75.3,75.3z"/>
	<path class="st0" d="M257,0C186,0,121.8,28.8,75.3,75.3L257,257V0z"/>
	<path class="st1" d="M438.7,75.3C392.2,28.8,328,0,257,0c0,0,0,0,0,0v257L438.7,75.3z"/>
	<path class="st0" d="M514,257c0-71-28.8-135.2-75.3-181.7L257,257H514z"/>
	<path class="st1" d="M438.7,438.7C485.2,392.2,514,328,514,257c0,0,0,0,0,0H257L438.7,438.7z"/>
	<circle class="st2" cx="256.9" cy="256.8" r="68.1"/>
	<circle class="st3" cx="257" cy="257" r="84"/>
	<circle class="st2" cx="257" cy="257" r="68"/>
	<circle cx="257" cy="257" r="58"/>
</g>
<path class="st2" d="M292.9,93.8v-3.5c0-3.2,1.8-5.1,4.9-5.2c1,0,1.9-0.4,2.5-1.3c2.6-3.3,5.3-6.5,7.9-9.8c1.5-2.1,4-3.3,6.6-3.2
	c5.8,0,11.6,0,17.4,0c2.5,0,4.8,1.1,6.3,3.1c3.1,3.6,6.3,7.1,9.5,10.7c0.6,0.6,1.3,1,2.1,1.1c2.5,0.5,5.1,0.8,7.7,1.3
	c1.2,0.2,2.3,0.7,3.4,1.3c1.9,1.1,3.1,2.6,2.8,5c-0.2,1.4-0.2,2.8,0,4.1c0.4,2.6-1.1,4-2.8,5.4c-0.5,0.3-1,0.5-1.5,0.5
	c-0.7,0.1-1.4,0.1-2.2,0c-2.4-0.2-4.1,0.2-5.7,2.7c-3.7,5.6-12.1,4.7-15.2-1.3c-0.3-0.9-1.3-1.5-2.2-1.4c-5,0.1-10.1,0.1-15.1,0
	c-1-0.1-1.9,0.4-2.3,1.3c-1.4,3.2-4.7,5.1-8.1,5c-3.5,0.1-6.7-1.9-8.1-5.1c-0.5-0.9-1-1.4-2-1.2c-1.2,0.2-2-0.5-2.9-1.2
	c-2.3-1.6-3.4-4.5-2.9-7.2C292.9,94.6,292.9,94.2,292.9,93.8z M325.1,85.1h16.1c-2.6-2.9-5-5.5-7.3-8.1c-0.3-0.3-0.7-0.5-1.1-0.6
	c-2.5-0.1-5,0-7.6,0V85.1z M307.5,85.1h11.7v-8.7c-1.7,0-3.3-0.1-4.9,0c-0.6,0-1.1,0.3-1.5,0.8C311,79.7,309.3,82.3,307.5,85.1z
	 M344.5,104.9c2.4,0,4.3-1.9,4.4-4.2s-1.9-4.3-4.2-4.4c-2.4,0-4.3,1.8-4.4,4.2C340.3,102.9,342.1,104.9,344.5,104.9L344.5,104.9z
	 M313.1,100.7c0-2.4-2-4.3-4.3-4.2c-2.2,0-4.1,1.8-4.2,4c-0.2,2.4,1.6,4.4,4,4.6c2.4,0.2,4.4-1.6,4.6-4
	C313.1,100.9,313.1,100.8,313.1,100.7z"/>
<path class="st2" d="M88.6,190.7c1-1.8,2-3.3,2.8-4.9c1.2-2.3,2.9-3.9,5.6-3.9s4.4,1.5,5.7,3.8c3.8,6.9,7.8,13.7,11.6,20.6
	c0.9,1.7,1.9,2.6,4,2.5c0.8-0.1,1.7,0.8,2.6,1.3c-0.8,0.4-1.6,1.1-2.4,1.1c-21,0.1-42,0.1-63,0c-2.8,0-3.1-0.6-1.8-3
	c5.6-10,11.3-20.1,17-30.2c2.8-4.8,8-4.8,10.8-0.1C83.7,182.1,86.1,186.3,88.6,190.7z"/>
<path class="st2" d="M158.4,58.2h46c0.4,3.1,0.9,6.1,1.3,9.1c0.2,1.7,0.5,3.5,0.7,5.2c0.6,4.1-0.4,5.8-4.5,7.2v4.2l-3.1,0.4
	c-0.1-0.4-0.1-0.8-0.1-1.1c0.2-2.3,0.2-4.5-2.9-5.1c-2.9,2.3-6,2.2-9.3,0c-3,2.2-7.1,2.2-10.1,0c-3.5,2.3-6.4,2.3-9.4-0.2
	c-0.1,0.1-0.3,0.2-0.4,0.3c-2.4,0.8-2.4,2.7-2.4,4.8c0.1,4.8,0,9.5,0,14.4l1.5,0.2v-13h12.6v12.9l3.2,0.1v3H161V79.7
	c-0.7-0.2-1.3-0.5-2-0.8c-1.9-0.8-3-2.7-2.8-4.7C156.9,68.9,157.7,63.6,158.4,58.2z M178.5,61.4c-0.2,4.3-0.3,8.5-0.4,12.7
	c-0.1,1.2,0.8,2.2,2,2.3c0.1,0,0.1,0,0.2,0c0.5,0,1,0,1.5,0c2.2,0,3-0.9,3-3c0-1.4-0.1-2.8-0.1-4.2c-0.1-2.6-0.2-5.1-0.4-7.7
	L178.5,61.4z M161.1,61.4c-0.6,4.3-1.2,8.7-1.7,13c0,0.7,0.4,1.3,0.9,1.7c1.8,1.2,4.7,0,5-2.1c0.5-4.1,0.8-8.3,1.1-12.6L161.1,61.4z
	 M196.3,61.4c0.4,4.2,0.7,8.4,1.1,12.5c0.1,0.9,0.7,1.6,1.5,2c1.2,0.3,2.4,0.3,3.6,0c1.2-0.4,0.9-1.8,0.8-2.8
	c-0.1-0.5-0.2-1.1-0.2-1.6c-0.5-3.4-0.9-6.7-1.4-10.1L196.3,61.4z M168.9,87.4v9.8h5.9v-9.8L168.9,87.4z"/>
<path class="st2" d="M187,103.2c-2.7-0.3-2.7-0.3-2.7-3c0-3.3,0-3.3,3.3-3.3h29.1c2,0,2.2,0.2,2.2,2.2c0,0.6,0,1.2,0,1.8
	c0.1,1.4-0.3,2.3-1.9,2.3c-0.3,0-0.9,0.6-1,1.1c-0.6,3.5-1.1,6.9-1.6,10.4c-0.3,2.4-0.6,2.6-3,2.6h-20.1c-1.9,0-2.3-0.4-2.5-2.2
	C188.1,111.1,187.6,107.2,187,103.2z M195.4,109.1c0.1-1.4,0-2.7-0.1-4.1c-0.1-0.5-0.7-1-1-1.5c-0.4,0.5-1.2,1-1.2,1.5
	c-0.1,2.7-0.1,5.5,0,8.2c0,0.5,0.7,0.9,1.1,1.4c0.4-0.5,1-0.9,1.1-1.4C195.5,111.9,195.5,110.5,195.4,109.1z M200.3,109.1
	c-0.1,1.4,0,2.7,0.1,4.1c0.1,0.5,0.7,0.9,1.1,1.4c0.4-0.5,1.1-0.9,1.1-1.4c0.1-2.7,0.1-5.5,0.1-8.2c0-0.9-0.4-1.6-1.2-1.4
	c-0.6,0.3-1,0.8-1.1,1.4C200.3,106.4,200.3,107.8,200.3,109.1z M209.9,109.1c0-1.4,0-2.7,0-4.1c0-0.8-0.4-1.6-1.3-1.4
	c-0.6,0.3-1,0.8-1.1,1.4c-0.1,2.7-0.1,5.4-0.1,8c0,0.8,0.2,1.5,1.2,1.5s1.2-0.7,1.2-1.5C209.9,111.8,209.9,110.5,209.9,109.1z"/>
<path class="st2" d="M181.1,93.8V81.6h15.5c0.5,3.2,0.4,3.2-2.8,4.6l-0.2-1.5h-9.4v6.1h5.3c-0.4,1-0.7,1.9-1.1,2.7
	c-0.2,0.2-0.4,0.4-0.7,0.4C185.5,93.9,183.3,93.8,181.1,93.8z"/>
<path class="st2" d="M211.9,94.7c-0.9,0.1-1.8,0.1-2.7,0c-0.4-0.1-0.8-0.4-1.1-0.8c-3.4-4.9-9.8-4.9-13.2,0
	c-0.4,0.4-0.9,0.7-1.5,0.8c-0.8,0.1-1.5,0.1-2.3,0c0.8-4.3,5.5-7.8,10.3-7.8C206.3,86.8,211,90.2,211.9,94.7z"/>
<path class="st2" d="M170.5,94.6c-0.4-0.6-1-1.1-1.2-1.7c-0.2-0.6,0.2-1.3,0.8-1.4c0.2-0.1,0.4-0.1,0.5,0c0.7,0.2,1.2,0.7,1.5,1.4
	c0.1,0.5-0.6,1.2-1,1.8L170.5,94.6z"/>
<path class="st2" d="M404.4,299.8c0.1-0.9-0.6-1.6-1.4-1.7c-0.9-0.1-1.6,0.6-1.7,1.4c0,0.1,0,0.2,0,0.3v9.7c0,0.5-0.4,0.9-0.9,0.9
	c0,0,0,0,0,0h-0.2c-0.5,0-0.9-0.4-0.9-0.9v-9.8c0-0.9-0.7-1.6-1.6-1.6c-0.9,0-1.6,0.7-1.6,1.6v9.8c0,0.5-0.4,0.9-0.9,0.9h-0.2
	c-0.5,0-0.9-0.4-0.9-0.8c0,0,0,0,0,0v-9.7c0-0.9-0.7-1.6-1.6-1.6c-0.9,0-1.6,0.7-1.6,1.6v9.4c0,4,0.9,5,2.5,6.2c1.3,1,2.3,1.6,2.3,4
	v25.1h3.8v-25c0-2.5,1.1-3,2.3-4c1.6-1.2,2.5-2.3,2.5-6.2L404.4,299.8z"/>
<path class="st2" d="M453.9,300.5c-1.4,4.7-2.5,9.6-3.3,14.5c-0.5,4.6,1.9,6.2,3.4,8.8l0.9,2.1v18.7h3.8v-44
	C458.8,297.7,455,297,453.9,300.5z"/>
<path class="st2" d="M426.5,298.9c-12.4,0-22.4,10-22.4,22.4s10,22.4,22.4,22.4c12.4,0,22.4-10,22.4-22.4S438.8,298.9,426.5,298.9
	L426.5,298.9z M439.5,334.3c-7.2,7.2-18.8,7.2-26,0c-7.2-7.2-7.2-18.8,0-26c7.2-7.2,18.8-7.2,26,0c3.4,3.4,5.4,8.1,5.4,13
	C444.9,326.2,442.9,330.9,439.5,334.3L439.5,334.3z"/>
<path class="st2" d="M414,321.3c0,2.2,0.6,4.4,1.7,6.2l2-1.1c-2.8-4.9-1.2-11.1,3.7-13.9c1.6-0.9,3.3-1.4,5.1-1.4
	c1.8,0,3.6,0.5,5.1,1.4l1.1-2c-5.9-3.5-13.6-1.5-17,4.5C414.6,316.9,414,319.1,414,321.3L414,321.3z"/>
<path class="st2" d="M182,451.6c-0.7-0.3-1.4-0.5-2.1-0.9c-2.3-1.2-3.6-3.6-3.5-6.2c0-4.2-0.1-8.4,0-12.6c-0.1-2.7-0.7-5.3-1.8-7.8
	c-1.3-3.6-2.9-7-3.2-10.9c-0.3-3.9-0.2-7.5-0.1-11.2c0.2-2,0.4-4,0.8-6c0.1-0.7,0.4-1,1.2-1c10.3,0,20.7,0,31,0c0.8,0,1.2,0.3,1.2,1
	c0.3,3.1,0.7,6.2,1,9.3c0.7,7.1-1.3,13.6-3.9,20c-0.9,2.3-1.4,4.8-1.3,7.3c0.1,3.8,0,7.6,0,11.4c0,3.8-1.6,6.2-5.4,7.3
	c-0.1,0-0.2,0.1-0.3,0.2L182,451.6z M188.9,397.5c-4.5,0-9,0-13.5,0c-0.8,0-1.1,0.3-1.2,1c-0.1,1-0.2,1.9-0.3,2.9
	c-0.3,4-0.8,8.1,0.1,12.1c0.8,3.5,2,6.8,3.2,10.2c1,2.6,1.6,5.3,1.7,8c-0.1,4.2,0,8.3,0,12.5c0,2.9,1.7,4.7,4.7,4.7
	c3.5,0,7-0.1,10.5,0c2.5,0.1,4.7-1.8,4.8-4.3c0-0.2,0-0.4,0-0.6c-0.1-4.3,0-8.6,0-12.9c0-0.7,0-1.3,0.2-2c0.8-2.8,1.7-5.6,2.7-8.4
	c1.1-2.9,1.9-5.9,2.3-9c0.3-4.4,0.1-8.8-0.5-13.2c-0.1-0.8-0.4-1.1-1.2-1.1C197.8,397.5,193.3,397.5,188.9,397.5L188.9,397.5z"/>
<path class="st2" d="M201.4,407c0.3,3.3-0.2,6.6-1.2,9.8c-1.1,3.3-2.4,6.6-3.4,10c-0.4,1.6-0.6,3.2-0.6,4.8c-0.1,4.2,0,8.3,0,12.5
	c0,1.8-0.4,2.2-2.2,2.2c-3.4,0-6.9,0-10.3,0c-1.6,0-2-0.4-2-2c0-3.7-0.1-7.4,0-11.1c0-3.5-0.6-7.1-1.9-10.4
	c-1.2-3.2-2.2-6.4-3.1-9.7c-0.3-2.1-0.5-4.1-0.5-6.2h3.9c0,1.5,0.1,2.9,0.3,4.4c0.7,3.1,1.6,6.1,2.4,9.2c0.7,2.6,1.3,5.2,2,7.8
	c0.1,0.6,0.3,1,1.2,0.6c-0.3-1.9-0.6-3.9-0.9-5.9c-0.7-4.2-1.5-8.5-2.1-12.7c-0.1-1.1-0.1-2.2,0-3.3L201.4,407z M191.7,420.9
	c0,0.7,0.5,1.3,1.2,1.4c0,0,0,0,0.1,0c0.7,0,1.3-0.6,1.3-1.4c0-0.6-0.5-1.2-1.2-1.3C192.4,419.6,191.7,420.1,191.7,420.9
	C191.7,420.8,191.7,420.9,191.7,420.9z M192.3,410.5c-0.7,0-1.3,0.6-1.3,1.3c0,0,0,0.1,0,0.1c0.1,0.7,0.7,1.2,1.4,1.2
	c0.6-0.1,1.1-0.6,1.2-1.2c0-0.7-0.5-1.3-1.2-1.3C192.4,410.5,192.4,410.5,192.3,410.5z M190.1,429.8c0.4-0.6,0.9-1,0.9-1.4
	c0-0.4-0.6-0.7-0.9-1c-0.4,0.4-0.9,0.7-1,1.1C189.1,428.9,189.6,429.2,190.1,429.8z M186.7,435.6c-0.7-0.4-1.1-0.9-1.5-0.8
	c-0.4,0.1-0.6,0.6-1,1c0.4,0.3,0.7,0.8,1,0.9C185.5,436.6,186,436,186.7,435.6L186.7,435.6z M190.2,438.5c-0.5,0.6-1,1-1,1.3
	c0.1,0.5,0.5,0.8,0.9,0.9c0.5-0.1,0.8-0.4,1-0.9C191,439.5,190.5,439.1,190.2,438.5L190.2,438.5z"/>
<path class="st2" d="M298.9,409.7c0.9-2.3,2.7-3,5-2.8c1.1,0.1,2.1,0,3.3,0v37.3c-1.8,0-3.6,0.1-5.4,0c-1.5-0.2-2.3-1.4-2.9-2.7
	L298.9,409.7z"/>
<path class="st2" d="M353.8,441.5c-0.3,0.6-0.7,1.1-1.1,1.6c-0.5,0.5-1.2,0.9-1.9,1.1c-1.7,0.1-3.5,0-5.3,0v-37.3
	c1.9,0.1,3.9,0.1,5.8,0.3c1.4,0.2,1.9,1.5,2.5,2.6V441.5z"/>
<path class="st2" d="M341.5,444.2h-30.3v-37.3c1.3,0,2.5,0,3.7,0c0.7,0,1-0.2,0.9-0.9c0-1.7,0-3.4,0-5c-0.1-1.6,1.1-2.9,2.7-3
	c0.1,0,0.2,0,0.3,0c5,0,9.9,0,14.9,0c1.6-0.1,2.9,1.1,3,2.7c0,0.1,0,0.3,0,0.4c0,1.5,0.1,3.1,0,4.6c0,1,0.2,1.4,1.2,1.3
	c1-0.1,2.3,0,3.5,0V444.2z M319.1,411.5c-0.6,0-1.2,0-1.8,0c-1.3,0-1.8,0.5-1.8,1.7c0,1.3-0.1,2.6,0,3.9c0,0.5,0.2,1,0.6,1.4
	c2.2,2.3,4.5,4.6,6.8,6.8c0.8,0.8,1.4,0.8,2.2,0c1.4-1.4,2.7-2.7,4.1-4.1c1-1,1-1.5,0-2.5c-1.7-1.8-3.6-3.4-5.2-5.2
	C322.6,412,321.2,411,319.1,411.5z M326.3,406.9h6c0.5,0,0.9,0,0.9-0.7c0-1.3,0-2.7,0-4c-0.1-0.3-0.4-0.6-0.7-0.6
	c-4.1,0-8.2,0-12.3,0c-0.6,0-0.8,0.2-0.7,0.8c0,1.2,0.1,2.4,0,3.6c0,0.8,0.3,1,1,1C322.4,406.9,324.4,406.9,326.3,406.9z"/>
<path class="st2" d="M318.8,416.1c-0.4-0.6-0.9-0.9-0.8-1.3c0-0.3,0.5-0.6,0.8-1c0.3,0.3,0.8,0.6,0.9,0.9
	C319.7,415.1,319.2,415.5,318.8,416.1z"/>
<path class="st2" d="M389.9,199.6c0.2-0.7,0.3-1.4,0.5-2.1c1.7-7.2,8.5-12.1,15.9-11.5c0.9,0.1,1.9,0.3,2.8,0.5
	c0.3,0.1,0.6,0,0.7-0.3c0,0,0-0.1,0-0.1c0.7-1.5,1.5-2.9,2.2-4.4c0.1-0.3,0.1-0.6,0-0.9c-0.2-0.5-0.5-1-0.8-1.5
	c-0.1-0.2-0.4-0.3-0.6-0.4c-1.3,0-2.4-1.1-2.4-2.4c0,0,0-0.1,0-0.1c0-1.3,1.2-2.4,2.5-2.3c0,0,0.1,0,0.1,0c1.7,0,3.4,0.1,5,0
	c2.5-0.2,4,2,2.4,4.3c0.3,0,0.5,0.1,0.7,0.1c6.9-0.1,13.8-0.2,20.6-0.3c0.5,0,0.9-0.2,1.2-0.7c0.7-1.1,1.4-2.2,2.2-3.5h-2.5
	c-1.2,0-2.4,0-3.6,0c-1.4,0.1-2.6-0.8-2.7-2.2c-0.1-1.4,0.8-2.6,2.2-2.7c0.2,0,0.4,0,0.5,0c3.2,0,6.3,0,9.5,0c2.2,0,3.3,1.7,2.3,3.7
	c-0.1,0.3-0.1,0.5,0,0.8c1.1,3.9,2.3,7.9,3.4,11.8c0.2,0.6,0.5,0.6,1,0.6c4.6-0.4,9.2,1.5,12.2,4.9c5.6,6.1,5.1,15.6-1.1,21.2
	c-0.2,0.2-0.4,0.4-0.6,0.5c-6.4,5.3-15.9,4.3-21.1-2.1c-1.9-2.3-3.1-5.2-3.4-8.2c-0.6-6.2,2.1-11,7.4-14.4c0.3-0.2,0.7-0.4,1.1-0.6
	l-2.3-7.9l-0.5,0.8c-4.8,7.6-9.5,15.1-14.2,22.7c-0.6,1.2-2,1.9-3.3,1.7c-2.2-0.2-4.4-0.3-6.6-0.4c-0.5,0-0.8,0.1-0.9,0.6
	c-2.2,8-10.4,12.7-18.4,10.6c-1.5-0.4-2.9-1-4.3-1.9c-3.7-2.3-6.2-6.2-6.8-10.5c0-0.3-0.1-0.5-0.2-0.8L389.9,199.6z M448.9,192.3
	c-4.3,2.4-6.2,7.5-4.5,12.1c1.9,5.3,7.7,8.1,13,6.2c5-1.8,7.8-7.2,6.4-12.3c-1.3-4.5-5.5-7.6-10.2-7.3c0.1,0.3,0.2,0.6,0.2,0.9
	c0.8,2.8,1.6,5.6,2.4,8.4c0.5,1.3-0.2,2.7-1.4,3.1c-1.3,0.5-2.7-0.2-3.1-1.4c0-0.1-0.1-0.2-0.1-0.3c-0.3-1.1-0.6-2.1-0.9-3.2
	C450.1,196.4,449.5,194.4,448.9,192.3L448.9,192.3z M407.3,191.2c-5-1.5-10.8,2-12.1,7.2c-1.5,5.4,1.7,11,7.1,12.5
	c0.2,0,0.3,0.1,0.5,0.1c5.1,1.2,10.3-1.8,11.8-6.9c-0.5,0-1-0.1-1.5-0.1c-2.7-0.2-5.4-0.3-8.1-0.5c-1.3,0-2.4-1-2.4-2.4
	c0-0.1,0-0.3,0-0.4c0.1-0.4,0.3-0.9,0.5-1.3L407.3,191.2z M437.2,183.1l-17.9,0.3l8.7,14.4L437.2,183.1z M415.3,186.2l-1.3,2.6
	c0,0.1,0.1,0.1,0.1,0.2c3.2,2.4,5.3,6,5.9,10c0,0.2,0.2,0.3,0.4,0.4c1,0.1,2,0.1,3.2,0.2L415.3,186.2z M415,199.2
	c-0.4-2.3-1.6-4.3-3.4-5.8l-2.8,5.5L415,199.2z"/>
<path class="st2" d="M78.5,326.1c0.6-2.8,1.1-5.4,1.8-7.9c0.1-0.4,0.7-0.7,1.2-0.8c2.5-0.6,5.1-1.1,7.6-1.8c1.1-0.3,2-0.3,2.6,0.9
	c0.2,0.3,0.3,0.5,0.5,0.8c1.4-1.8,2.6-3.5,4-5.1c0.4-0.5,1.1-0.7,1.7-0.6c2.7,0.5,5.4,1.2,8.1,1.7c0.8,0.1,1.4,0.7,1.5,1.5
	c0.3,1.8,0.8,3.6,1.5,5.3c0-0.2,0.1-0.4,0.2-0.6c0.8-2.3,2.5-2.6,4.7-2.2c2.2,0.4,4.3,0.4,6.5,0.7c0.5,0.1,1,0.5,1.2,1
	c0.7,1.7,1.3,3.4,1.8,5.2c1.3,4,1.1,8.4-0.4,12.4c-1.3,3.5-2.7,7-4,10.5c-0.4,1.3-1.8,2.1-3.2,1.8c-1.8-0.2-3.6-0.4-5.5-0.6
	c-2.2-0.2-2.8-0.7-3.2-2.8c-0.6-3-1-6-1.6-9c0-0.2-0.1-0.4-0.3-0.9c-1.2,2.1-2.3,3.9-3.2,5.7c-0.9,1.9-2.1,2.9-4.5,2
	c0,2.3-1.6,2.8-3.3,3.1c-1.7,0.3-3.4,0.7-5.1,1.1c-0.5,0.1-0.9,0.1-1.8,0.2c2.5-4.4,3.1-8.7,1.3-13.1
	C86.9,330.1,83.5,327.4,78.5,326.1z"/>
<path class="st2" d="M76,352c-6.8,0-12.3-5.5-12.3-12.2c0-6.8,5.5-12.3,12.2-12.3c6.8,0,12.2,5.4,12.3,12.2
	C88.2,346.5,82.7,352,76,352z M78.2,333.2c0.7-1,1.4-1.4,1.5-2c0.1-0.6-0.3-1.2-0.9-1.4c-0.2,0-0.4,0-0.6,0
	c-0.6,0.1-1.4,0.8-1.4,1.3S77.5,332.2,78.2,333.2z M76.5,333.6c-1-0.6-1.6-1.3-2.1-1.3s-1,0.9-1.6,1.4c0.6,0.5,1.1,1.2,1.7,1.3
	C75.1,335.1,75.6,334.3,76.5,333.6L76.5,333.6z M79,337.3c0.7-0.9,1.6-1.6,1.4-2c-0.3-0.7-0.8-1.2-1.5-1.3c-0.7,0.1-1.2,0.6-1.4,1.3
	C77.5,335.9,78.3,336.4,79,337.3L79,337.3z"/>
<path class="st2" d="M111.5,301.2c0.4-1.7,0.9-3.3,1.6-4.8c0.9-2,3.1-3.1,5.3-2.9c2.2,0.2,4.1,1.8,4.7,3.9c1.2,3.6,0,6.9-1.4,10.1
	c-0.1,0.2-0.6,0.4-0.8,0.4c-2.6-0.2-5.1-0.5-7.6-0.8c-0.4-0.1-0.8-0.5-0.9-0.9C112,304.7,111.8,303.2,111.5,301.2z"/>
<path class="st2" d="M78.9,307.6c-1.7-3.1-3.4-6.2-2.9-9.8c0.2-2.4,1.9-4.4,4.3-5c2.5-0.5,5,0.7,6.1,2.9c0.7,1.7,1.2,3.4,1.5,5.2
	c0.1,1.1,0.1,2.2,0,3.3c0.1,1.2-0.4,1.8-1.5,1.8c-0.2,0-0.4,0.1-0.6,0.1L78.9,307.6z"/>
<path class="st2" d="M99.4,298.5c0.2-1.6,0.5-3.2,0.9-4.8c0.4-1.2,1.1-2.3,1.9-3.3c1.3-1.6,3.6-2.2,5.5-1.5c2,0.6,3.5,2.4,3.8,4.5
	c0.6,3.6-0.9,6.7-2.6,9.6c-0.2,0.3-1,0.3-1.4,0.2c-2.1-0.4-4.2-1-6.4-1.4c-1.2-0.2-1.6-0.7-1.5-1.8c0-0.5,0-1.1,0-1.6L99.4,298.5z"
	/>
<path class="st2" d="M120.5,310.7l-0.3,4.4l-8.1-0.8l0.7-4.4L120.5,310.7z"/>
<path class="st2" d="M87.8,308.5l1.1,4.3l-7.9,1.7l-0.8-4.3L87.8,308.5z"/>
<path class="st2" d="M107.3,306.2l-0.8,4.4l-7.9-1.7l1.1-4.3L107.3,306.2z"/>
</svg>
