<svg xmlns="http://www.w3.org/2000/svg" viewBox="0 0 870 1145"><defs><style>.cls-1{fill:#ffd51a;}.cls-2,.cls-7{fill:none;}.cls-3{fill:#ffb90a;}.cls-4,.cls-6{fill:#fff;}.cls-4{opacity:0.84;}.cls-5{fill:#1a1a1a;}.cls-7{stroke:#231815;stroke-linecap:round;stroke-linejoin:round;stroke-width:10px;}</style></defs><g id="レイヤー_2" data-name="レイヤー 2"><g id="デザイン"><rect class="cls-1" width="870" height="1145" rx="10"/><rect class="cls-2" width="870" height="1145" rx="10"/><path class="cls-3" d="M870,592.79l-427.44,8.7L662.7,570.28c-.08-.53-.15-1.06-.23-1.59L870,539.57V463.45L437.25,600.14,870,403.38V308L625.57,472.54l-1-1.43L438.9,596.52,870,224.45V75.18L437.71,594.53,558.92,406.77l-.94-.6L821,0H692.3L434,596.53,610.59,0H506.47L461.19,371,459,370.7,432.09,593.43,433.71,0H331.23l98.14,591.67-62.15-213.2-1,.28L255.27,0H140.55L330.91,392.35l-.7.34L427,592.81,45.42,0H10A10,10,0,0,0,0,10V125.46L275.68,429.33l-.11.1L428.7,598.69,256.53,448.84l-.64.74L0,227.49V338.13l423,259.2-202.25-93c-.17.39-.35.77-.53,1.16L0,404.65v80.66l207.38,55.78c0,.2-.1.4-.16.6L420.58,599.4,0,539.19v72.52l421.08-9.14L201.3,633.41c.11.74.21,1.49.32,2.23L0,664.22v75.12L426.84,603.86,0,798.64v94.27L238.65,731.75l.6.89L425.34,607.35,0,975.47v147.67L426.19,609.69,304.86,797.07l1.48.95-224,347H198.19L430.06,607.5,271.74,1145h93.8l37.64-311.93,1.58.2,27.23-223-.06,41.61L431.43,835h.25l-.42,310h91L434.62,612.06l62.53,213.39.34-.1L590.67,1145H693.93L532.84,811.81l1.29-.63L437.22,611.45,779.58,1145H860a10,10,0,0,0,10-10v-48.53L588.12,774.9l.59-.53-153.37-169,172.38,149.6c.07-.08.15-.16.22-.25L870,982.76V870.37L440.8,606.55l202.64,92.81.26-.57,226.3,104V721L656.58,663.23l.33-1.23L443.78,604.68,870,666.3ZM431.33,603.5l.12.72-.78,1.21.52-1.76Zm-1.77-3.86.29.32-.15-.24.65.4-.89-.77-1.12-1.75,2,2.22.21.43-.21-.13.25.23.26.52-.21,0-.8-.88.47.74-.66-.3L426.92,598Zm.81,3.1-1.28.4.72-.48ZM425.18,604l4.26-1.35.11,0-2.25,1Zm.72,1.35,2.72-1.84,1.45-.2-.36.3ZM429,608l1.55-3.57.24-.29-.16,1.34Zm1.15,1.43.36-3,.94-2.17.08.5Zm8.12-10.79-2.85,1.92-1.44.2.4-.35ZM435,600.85l-.74.5-.59-.08Zm0-4.7-1.5,3.5-.2.24.16-1.36Zm-2.45,3.06,1.42-4.81-.39,3.16-.94,2.18Zm.22,1.31-.12-.73.76-1.18-.52,1.77Zm1.75,3.84-.25-.28.13.21-.68-.42.93.81,1.18,1.84-2-2.28-.24-.48.18.11-.21-.18-.27-.54.2,0,.83.91-.51-.78.61.28,2.68,2.33Zm.11-3h-.08l2.23-1,1.95-.27Z"/><path class="cls-4" d="M10,1145H860a10,10,0,0,0,10-10V536.76L453,611,0,540.82V1135A10,10,0,0,0,10,1145Z"/><ellipse class="cls-3" cx="432" cy="955" rx="220.25" ry="50"/><polygon class="cls-5" points="726.45 189.46 146.51 189.46 165.22 144 146.51 98.55 726.45 98.55 707.75 144 726.45 189.46"/><path class="cls-6" d="M224,134.39l.05-5.71a19.55,19.55,0,0,0-.34-4,28.46,28.46,0,0,1,5.93.88c.66.18,1,.5,1,1a1.89,1.89,0,0,1-.29.81,6.29,6.29,0,0,0-.71,2c-.1,1-.18,2.34-.25,4.15a52,52,0,0,0,6.42-1.83,1,1,0,0,1,.34-.08c.3,0,.47.17.52.52a25.75,25.75,0,0,1,.29,3.88.8.8,0,0,1-.66.8,68.3,68.3,0,0,1-7.15,1.91l-.1,7.24a30.05,30.05,0,0,1,12.3-2.75,10.79,10.79,0,0,1,8,3.12,9.42,9.42,0,0,1,2.63,6.86q0,5.13-3.27,7.81a11.54,11.54,0,0,1-7.56,2.34,17.6,17.6,0,0,1-4.1-.44,1.39,1.39,0,0,1-1.1-1.51A8.38,8.38,0,0,0,234.4,157a20.25,20.25,0,0,0,6.24.88,5.48,5.48,0,0,0,3.93-1.42,4.9,4.9,0,0,0,1.47-3.73,4.73,4.73,0,0,0-1.64-3.91,6,6,0,0,0-3.85-1.15q-4.85,0-11.45,3.42.08,3.19.19,6,.42,5.84.42,6.5a4.56,4.56,0,0,1-.07,1.07.86.86,0,0,1-.69.56,16.94,16.94,0,0,1-3.68.61c-.33,0-.73-.3-1.22-1a28.54,28.54,0,0,0-7.1-6.39,8.69,8.69,0,0,0-1.59,1.1,1.26,1.26,0,0,1-.86.34,1.35,1.35,0,0,1-1.09-.81,45.45,45.45,0,0,1-2.3-4.64,18,18,0,0,0,4.59-1.75q2.27-1.25,8.15-4.64v-8.54q-5,.39-8.39.39a1.07,1.07,0,0,1-1.2-1.05c-.13-.8-.32-2.25-.56-4.35a25.78,25.78,0,0,0,3.9.25C219,134.78,221.15,134.65,224,134.39Zm.15,18.94q-3.18,2.14-4.88,3.39A48.21,48.21,0,0,0,223.9,159a1,1,0,0,0,.27,0c.16,0,.24-.09.24-.29a.39.39,0,0,0,0-.15c0-.5-.08-1.39-.15-2.68S224.13,153.73,224.1,153.33Zm16.71-18.94a31.15,31.15,0,0,1,2.3-3.91q.39-.63.66-.63l.19,0a24.15,24.15,0,0,1,10.6,6.1,1,1,0,0,1,.29.52,1.87,1.87,0,0,1-.2.49c-.27.42-.75,1.05-1.41,1.9l-1.3,1.66a.64.64,0,0,1-.53.17c-.25,0-.4-.06-.47-.17A23.49,23.49,0,0,0,240.81,134.39Z"/><path class="cls-6" d="M300.19,127.51c1.85,0,3.58.16,5.17.34.54.05.81.23.81.53a4.35,4.35,0,0,1-.24,1,19.51,19.51,0,0,0-.35,4.9v7.05l.1,4.76a1,1,0,0,1-.07.5q-.08.09-.42.09H301c-.29,0-.47,0-.53-.1a.94.94,0,0,1-.08-.49v-1.85H290.18v15.37H302v-3.78a50.08,50.08,0,0,0-.31-6.34c1.95,0,3.7.16,5.24.34.51.06.76.25.76.56a4.68,4.68,0,0,1-.24,1,17.94,17.94,0,0,0-.37,4.88v6.05l.1,4.4q0,.51-.54.51h-4.1q-.54,0-.54-.51v-2.3H273.61V167c0,.34-.19.51-.56.51H269a1,1,0,0,1-.51-.07c-.07,0-.1-.2-.1-.44l.1-4.39V156a52,52,0,0,0-.3-6.3c2,.05,3.71.16,5.25.34.57.07.86.26.86.56a7.74,7.74,0,0,1-.3,1,16.19,16.19,0,0,0-.34,4.35v3.68h11.23V144.25H275.2v2.05c0,.26,0,.41-.1.46a.82.82,0,0,1-.44.08h-4.17c-.26,0-.42,0-.47-.1a.85.85,0,0,1-.07-.44l.1-4.76v-7.49a54,54,0,0,0-.3-6.4c2,0,3.71.16,5.25.34.51,0,.76.26.76.61a1.72,1.72,0,0,1-.1.52,3.47,3.47,0,0,0-.14.48,16,16,0,0,0-.32,4.4v5.44h9.64V128.51a54.63,54.63,0,0,0-.34-6.47c1.72,0,3.55.19,5.49.41.5,0,.75.22.75.49a4,4,0,0,1-.31,1,23.08,23.08,0,0,0-.25,4.62v10.88h10.25v-5.59Q300.43,129.92,300.19,127.51Z"/><path class="cls-6" d="M333.57,135.83c.51-1.81,1-3.91,1.49-6.3a33.25,33.25,0,0,0,.51-5.54,44.35,44.35,0,0,1,6,1.64,1,1,0,0,1,.81,1,1,1,0,0,1-.34.75,6.5,6.5,0,0,0-1,1.91c-.25.75-.56,1.8-1,3.17s-.65,2.2-.85,2.83a34.23,34.23,0,0,1,3.91-.22,6.33,6.33,0,0,1,5.61,2.69,11.34,11.34,0,0,1,1.63,6.56,54.29,54.29,0,0,1-.8,9.45,26.61,26.61,0,0,1-1.9,6.61c-1.42,3.12-3.67,4.69-6.74,4.69a17.09,17.09,0,0,1-5-.56,1.31,1.31,0,0,1-.9-1.4,16.11,16.11,0,0,0-.93-4.63,15.64,15.64,0,0,0,5.5,1.1,3,3,0,0,0,2-.64,5.6,5.6,0,0,0,1.17-2,35.15,35.15,0,0,0,2-12.38,7.15,7.15,0,0,0-.69-3.81,2.53,2.53,0,0,0-2.17-.85,32.11,32.11,0,0,0-4.2.34,147,147,0,0,1-10.05,23.5c-.18.41-.43.61-.74.61a1.14,1.14,0,0,1-.56-.17,14.12,14.12,0,0,1-3.46-2.19,1.1,1.1,0,0,1-.39-.73,1,1,0,0,1,.19-.57,113.08,113.08,0,0,0,9.15-19.59c-1.13.17-2.76.46-4.88.85a17.3,17.3,0,0,0-2.75.81,1.92,1.92,0,0,1-.61.12,1,1,0,0,1-1-.78,48.82,48.82,0,0,1-1.53-5.15c1.84,0,4-.12,6.59-.35C329.47,136.41,331.44,136.15,333.57,135.83Zm17.79-.39c1.88-1.27,3.23-2.13,4.06-2.56a.61.61,0,0,1,.34-.1.93.93,0,0,1,.61.34,32.55,32.55,0,0,1,8.3,12.15,1.17,1.17,0,0,1,.12.44.73.73,0,0,1-.32.56,14.78,14.78,0,0,1-3.76,2.49,1.06,1.06,0,0,1-.51.15.61.61,0,0,1-.63-.54A34.1,34.1,0,0,0,351.36,135.44Z"/><path class="cls-6" d="M379.92,124.53a24.77,24.77,0,0,1,5.24,1.76c.73.37,1.1.74,1.1,1.09a2.13,2.13,0,0,1-.29,1,23.73,23.73,0,0,0-1,3.71q-1.9,10.8-1.91,15a42,42,0,0,0,.51,7.91c2.09-4.43,3.2-6.81,3.35-7.15a19.42,19.42,0,0,0,1.63,3.34,1.49,1.49,0,0,1,.47.95,4.86,4.86,0,0,1-.61,1.64,46,46,0,0,0-2.25,6.1,5.51,5.51,0,0,0-.14,1.32v1.19c0,.3-.22.52-.66.69a13.85,13.85,0,0,1-3.45,1.05l-.29,0c-.34,0-.62-.23-.85-.68a28.34,28.34,0,0,1-2.17-7.57,44.55,44.55,0,0,1-.79-7.91,124.19,124.19,0,0,1,1.49-16A56.05,56.05,0,0,0,379.92,124.53Zm23.3,10.2c-.16-4.08-.27-6.3-.31-6.64a19.46,19.46,0,0,0-.83-4.1,29.75,29.75,0,0,1,6.44.68c.54.15.8.42.8.81a2.13,2.13,0,0,1-.36,1,5.71,5.71,0,0,0-.25,2.1v5.56q3.62-.51,6.4-1.09a1.72,1.72,0,0,1,.44-.08c.27,0,.43.17.46.52q.23,1.33.42,3.75v.15a.66.66,0,0,1-.66.73q-3.18.62-6.91,1l.05,7.72a25.55,25.55,0,0,1-2.2,11.59,17.25,17.25,0,0,1-7.15,7.76,2.48,2.48,0,0,1-1.24.44,1.28,1.28,0,0,1-1-.44,16.18,16.18,0,0,0-3.91-2.47,22.15,22.15,0,0,0,5.69-4.05,13.52,13.52,0,0,0,2.76-4.24q1.63-3.77,1.56-11.16l-.05-4.54q-4,.3-6,.3c-.56,0-1.16.05-1.81.05s-1.42,0-2.39-.05c-.72,0-1.1-.26-1.15-.78,0-.27-.24-1.79-.56-4.57a56.07,56.07,0,0,0,6.2.27C399.77,135,401.63,134.88,403.22,134.73Z"/><path class="cls-6" d="M436.39,131a39.73,39.73,0,0,1,6.34,1.09c.54.15.81.45.81.91a1.68,1.68,0,0,1-.15.63,7.58,7.58,0,0,0-.61,3.39q-.15,9-2.71,14.7a25.39,25.39,0,0,1-7.1,9.39,2.35,2.35,0,0,1-1.3.66,1.83,1.83,0,0,1-.95-.39,18,18,0,0,0-4.24-2.1,25.64,25.64,0,0,0,8.29-10,24.73,24.73,0,0,0,1.62-5.78,60.74,60.74,0,0,0,.48-8.35A16.7,16.7,0,0,0,436.39,131Zm17.45,22.23a52.57,52.57,0,0,0,7.1-4.66,48.75,48.75,0,0,0,8.74-8.49,14,14,0,0,0,1.56,5,3.94,3.94,0,0,1,.29.85,2,2,0,0,1-.76,1.25,63.31,63.31,0,0,1-7.39,6.56,90.49,90.49,0,0,1-8.88,6,15.77,15.77,0,0,0-1.45,1,1.6,1.6,0,0,1-1,.4,2.32,2.32,0,0,1-1-.4,13.79,13.79,0,0,1-3-3.05,2.22,2.22,0,0,1-.44-1,1.67,1.67,0,0,1,.19-.75,12.73,12.73,0,0,0,.3-3.81V136.54a47.19,47.19,0,0,0-.52-8.72,54.45,54.45,0,0,1,6.28,1.05c.6.15.9.43.9.86a3.19,3.19,0,0,1-.39,1.27q-.46.92-.46,5.54Z"/><path class="cls-6" d="M482.9,141.83a73.35,73.35,0,0,0,10.79.61H509.8c1.57,0,3.61,0,6.1-.07,3.17-.05,5-.08,5.39-.1h.25c.43,0,.65.24.65.71,0,.76.08,1.55.08,2.37s0,1.58-.08,2.34c0,.5-.23.76-.7.76h-.2q-7.49-.1-11.15-.1h-18l-7.35.61a1.1,1.1,0,0,1-1.14-1.05A45.82,45.82,0,0,1,482.9,141.83Z"/><path class="cls-6" d="M544.33,155a88.77,88.77,0,0,0,12.74-6.3,68.43,68.43,0,0,0,13.25-10.2,21.45,21.45,0,0,0,.81,5.78,3,3,0,0,1,.14.81,1.51,1.51,0,0,1-.66,1.19,79.16,79.16,0,0,1-12.49,8.59,111.91,111.91,0,0,1-12.23,6.2,11.55,11.55,0,0,0-2.81,1.61,1.19,1.19,0,0,1-1.76,0,16.27,16.27,0,0,1-3.05-3.39,1.36,1.36,0,0,1-.29-.8,2,2,0,0,1,.24-.86,10.77,10.77,0,0,0,.2-2.85l.12-18.8a49.59,49.59,0,0,0-.56-8.69,48,48,0,0,1,6.49,1.1,1,1,0,0,1,.81,1,3.89,3.89,0,0,1-.25,1,22.16,22.16,0,0,0-.56,6.2Z"/><path class="cls-6" d="M582.62,140.22c1-.54,2.29-1.19,4-2a1.27,1.27,0,0,1,.54-.14,1,1,0,0,1,.75.49,26.29,26.29,0,0,1,4.3,7.39c.13.47.19.73.19.76,0,.21-.19.45-.58.71a22.53,22.53,0,0,1-3.22,1.53,1.14,1.14,0,0,1-.44.1c-.35,0-.61-.26-.81-.78A29,29,0,0,0,582.62,140.22Zm25.79-3.73a22.15,22.15,0,0,1,5.59,2.39c.44.32.66.61.66.85a1.34,1.34,0,0,1-.54.91,7.93,7.93,0,0,0-1.51,2.53,60.64,60.64,0,0,1-7.54,13.31,43.45,43.45,0,0,1-10.3,9.66,2.25,2.25,0,0,1-1.2.54,1.12,1.12,0,0,1-.8-.34,11.91,11.91,0,0,0-4.25-2.1A70.64,70.64,0,0,0,596,158.7a33.69,33.69,0,0,0,4.49-4.86,46.36,46.36,0,0,0,6.77-12.06A22.23,22.23,0,0,0,608.41,136.49Zm-15.74,1.19c2.13-1,3.47-1.62,4-1.83a1.16,1.16,0,0,1,.52-.14,1,1,0,0,1,.78.53,25.1,25.1,0,0,1,3.85,7.3,2,2,0,0,1,.13.59c0,.27-.22.53-.64.75a20.27,20.27,0,0,1-3.44,1.54.93.93,0,0,1-.32.07c-.26,0-.49-.26-.68-.8A36.13,36.13,0,0,0,592.67,137.68Z"/><path class="cls-6" d="M640.53,138.07a74.85,74.85,0,0,1,15.88,6.81,1,1,0,0,1,.66.86,1.32,1.32,0,0,1-.09.44,28.75,28.75,0,0,1-2.15,4.34c-.21.38-.43.56-.66.56a.83.83,0,0,1-.56-.24,55.34,55.34,0,0,0-13.13-6.42v11.06q0,2.73.19,9.78v.15c0,.4-.3.61-.9.61s-1.49.07-2.22.07-1.49,0-2.22-.07-1-.25-1-.76q.2-4.83.19-9.83v-24.6a44.65,44.65,0,0,0-.49-7.4,34.85,34.85,0,0,1,6.25.81c.63.13.95.41.95.85a2.66,2.66,0,0,1-.41,1.15c-.23.44-.34,2-.34,4.68Z"/><path class="cls-7" d="M132,255.19h15.17v80.55H132Zm6,33.55h28a7.24,7.24,0,0,0,4.09-1.17,7.5,7.5,0,0,0,2.75-3.32,12.84,12.84,0,0,0,1-5,12,12,0,0,0-1-5,7.63,7.63,0,0,0-2.74-3.33A7.44,7.44,0,0,0,166,269.8H138V255.19h29.24a22.5,22.5,0,0,1,11.68,3,20.19,20.19,0,0,1,7.8,8.45,30.27,30.27,0,0,1,0,25.3,20,20,0,0,1-7.83,8.44,22.43,22.43,0,0,1-11.65,3H138Zm16.95,12.12,16.22-2.55,21.7,37.43H174.48Z"/><path class="cls-7" d="M227.31,332.89A25.61,25.61,0,0,1,217,322.48a32.08,32.08,0,0,1-3.66-15.58V284.09A32.09,32.09,0,0,1,217,268.5a25.61,25.61,0,0,1,10.32-10.41,34.15,34.15,0,0,1,30.84,0,25.69,25.69,0,0,1,10.33,10.41,32.2,32.2,0,0,1,3.65,15.59V306.9a32.19,32.19,0,0,1-3.65,15.58,25.69,25.69,0,0,1-10.33,10.41,34.15,34.15,0,0,1-30.84,0Zm22.62-13.23a12,12,0,0,0,4.79-5,15.77,15.77,0,0,0,1.69-7.42V283.7a15.77,15.77,0,0,0-1.69-7.42,12,12,0,0,0-4.79-5,15.77,15.77,0,0,0-14.4,0,12,12,0,0,0-4.78,5,15.65,15.65,0,0,0-1.69,7.42v23.58a15.65,15.65,0,0,0,1.69,7.42,12,12,0,0,0,4.78,5,15.77,15.77,0,0,0,14.4,0Z"/><path class="cls-7" d="M309.66,333.05a23.3,23.3,0,0,1-10-10.24,35.35,35.35,0,0,1-3.43-16.19V255.24h15.17V307q0,6.92,3.71,10.74t10.47,3.82q6.79,0,10.54-3.82T339.83,307V255.24H355v51.38a35.09,35.09,0,0,1-3.46,16.19,23.47,23.47,0,0,1-10.08,10.24,37.67,37.67,0,0,1-31.8,0Z"/><path class="cls-7" d="M381.84,255.24H397v80.5H381.84Zm6.75,65.88h47.17v14.62H388.59Z"/><path class="cls-7" d="M458.18,255.24h15.17v80.5H458.18Zm5.48,0H512.1v14.62H463.66Zm0,33.22H506v14.62H463.66Zm0,32.66H512.1v14.62H463.66Z"/><path class="cls-7" d="M528.42,255.24h59v14.62h-59Zm21.93,6.59h15.17v73.91H550.35Z"/><path class="cls-7" d="M602.65,255.24h59v14.62h-59Zm21.93,6.59h15.17v73.91H624.58Z"/><path class="cls-7" d="M681.87,255.24H697v80.5H681.87Zm5.48,0h48.44v14.62H687.35Zm0,33.22H729.7v14.62H687.35Zm0,32.66h48.44v14.62H687.35Z"/><path class="cls-6" d="M132,255.19h15.17v80.55H132Zm6,33.55h28a7.24,7.24,0,0,0,4.09-1.17,7.5,7.5,0,0,0,2.75-3.32,12.84,12.84,0,0,0,1-5,12,12,0,0,0-1-5,7.63,7.63,0,0,0-2.74-3.33A7.44,7.44,0,0,0,166,269.8H138V255.19h29.24a22.5,22.5,0,0,1,11.68,3,20.19,20.19,0,0,1,7.8,8.45,30.27,30.27,0,0,1,0,25.3,20,20,0,0,1-7.83,8.44,22.43,22.43,0,0,1-11.65,3H138Zm16.95,12.12,16.22-2.55,21.7,37.43H174.48Z"/><path class="cls-6" d="M227.31,332.89A25.61,25.61,0,0,1,217,322.48a32.08,32.08,0,0,1-3.66-15.58V284.09A32.09,32.09,0,0,1,217,268.5a25.61,25.61,0,0,1,10.32-10.41,34.15,34.15,0,0,1,30.84,0,25.69,25.69,0,0,1,10.33,10.41,32.2,32.2,0,0,1,3.65,15.59V306.9a32.19,32.19,0,0,1-3.65,15.58,25.69,25.69,0,0,1-10.33,10.41,34.15,34.15,0,0,1-30.84,0Zm22.62-13.23a12,12,0,0,0,4.79-5,15.77,15.77,0,0,0,1.69-7.42V283.7a15.77,15.77,0,0,0-1.69-7.42,12,12,0,0,0-4.79-5,15.77,15.77,0,0,0-14.4,0,12,12,0,0,0-4.78,5,15.65,15.65,0,0,0-1.69,7.42v23.58a15.65,15.65,0,0,0,1.69,7.42,12,12,0,0,0,4.78,5,15.77,15.77,0,0,0,14.4,0Z"/><path class="cls-6" d="M309.66,333.05a23.3,23.3,0,0,1-10-10.24,35.35,35.35,0,0,1-3.43-16.19V255.24h15.17V307q0,6.92,3.71,10.74t10.47,3.82q6.79,0,10.54-3.82T339.83,307V255.24H355v51.38a35.09,35.09,0,0,1-3.46,16.19,23.47,23.47,0,0,1-10.08,10.24,37.67,37.67,0,0,1-31.8,0Z"/><path class="cls-6" d="M381.84,255.24H397v80.5H381.84Zm6.75,65.88h47.17v14.62H388.59Z"/><path class="cls-6" d="M458.18,255.24h15.17v80.5H458.18Zm5.48,0H512.1v14.62H463.66Zm0,33.22H506v14.62H463.66Zm0,32.66H512.1v14.62H463.66Z"/><path class="cls-6" d="M528.42,255.24h59v14.62h-59Zm21.93,6.59h15.17v73.91H550.35Z"/><path class="cls-6" d="M602.65,255.24h59v14.62h-59Zm21.93,6.59h15.17v73.91H624.58Z"/><path class="cls-6" d="M681.87,255.24H697v80.5H681.87Zm5.48,0h48.44v14.62H687.35Zm0,33.22H729.7v14.62H687.35Zm0,32.66h48.44v14.62H687.35Z"/><path class="cls-6" d="M107.9,373.31c-2.51,40.53-5.06,43.08-45.59,45.59a.1.1,0,0,0,0,.2c40.53,2.51,43.08,5.06,45.59,45.59a.1.1,0,0,0,.2,0c2.51-40.53,5.06-43.08,45.59-45.59a.1.1,0,0,0,0-.2c-40.53-2.51-43.08-5.06-45.59-45.59A.1.1,0,0,0,107.9,373.31Z"/><path class="cls-6" d="M737.14,434.1c-27.42,1.72-29.32,3.62-31,31a.1.1,0,0,1-.2,0c-1.72-27.42-3.62-29.32-31-31a.1.1,0,0,1,0-.2c27.42-1.72,29.32-3.62,31-31a.1.1,0,0,1,.2,0c1.72,27.42,3.62,29.32,31,31A.1.1,0,0,1,737.14,434.1Z"/><path class="cls-6" d="M816.87,188.1C796,189.42,794.42,191,793.1,211.87a.1.1,0,0,1-.2,0C791.58,191,790,189.42,769.13,188.1a.1.1,0,0,1,0-.2c20.88-1.32,22.45-2.89,23.77-23.77a.1.1,0,0,1,.2,0c1.32,20.88,2.89,22.45,23.77,23.77A.1.1,0,0,1,816.87,188.1Z"/><path class="cls-3" d="M824.69,624.1c-40.53,2.51-43.08,5.06-45.59,45.59a.1.1,0,0,1-.2,0c-2.51-40.53-5.06-43.08-45.59-45.59a.1.1,0,0,1,0-.2c40.53-2.51,43.08-5.06,45.59-45.59a.1.1,0,0,1,.2,0c2.51,40.53,5.06,43.08,45.59,45.59A.1.1,0,0,1,824.69,624.1Z"/><path class="cls-3" d="M135.69,1013.1c-40.53,2.51-43.08,5.06-45.59,45.59a.1.1,0,0,1-.2,0c-2.51-40.53-5.06-43.08-45.59-45.59a.1.1,0,0,1,0-.2c40.53-2.51,43.08-5.06,45.59-45.59a.1.1,0,0,1,.2,0c2.51,40.53,5.06,43.08,45.59,45.59A.1.1,0,0,1,135.69,1013.1Z"/><path class="cls-3" d="M800.69,1013.1c-40.53,2.51-43.08,5.06-45.59,45.59a.1.1,0,0,1-.2,0c-2.51-40.53-5.06-43.08-45.59-45.59a.1.1,0,0,1,0-.2c40.53-2.51,43.08-5.06,45.59-45.59a.1.1,0,0,1,.2,0c2.51,40.53,5.06,43.08,45.59,45.59A.1.1,0,0,1,800.69,1013.1Z"/><path class="cls-3" d="M747,850.1c-29.06,1.82-31,3.8-32.86,32.86a.1.1,0,0,1-.2,0c-1.82-29.06-3.8-31-32.86-32.86a.1.1,0,0,1,0-.2c29.06-1.82,31-3.8,32.86-32.86a.1.1,0,0,1,.2,0c1.82,29.06,3.8,31,32.86,32.86A.1.1,0,0,1,747,850.1Z"/><path class="cls-3" d="M175.19,895.6c-31.52,2-33.62,4.07-35.59,35.59a.1.1,0,0,1-.2,0c-2-31.52-4.07-33.62-35.59-35.59a.1.1,0,0,1,0-.2c31.52-2,33.62-4.07,35.59-35.59a.1.1,0,0,1,.2,0c2,31.52,4.07,33.62,35.59,35.59A.1.1,0,0,1,175.19,895.6Z"/><path class="cls-3" d="M116,620.1c-29.06,1.82-31,3.8-32.86,32.86a.1.1,0,0,1-.2,0c-1.82-29.06-3.8-31-32.86-32.86a.1.1,0,0,1,0-.2c29.06-1.82,31-3.8,32.86-32.86a.1.1,0,0,1,.2,0c1.82,29.06,3.8,31,32.86,32.86A.1.1,0,0,1,116,620.1Z"/></g></g></svg>