<svg xmlns="http://www.w3.org/2000/svg" width="17.298" height="14.472" viewBox="0 0 17.298 14.472">
  <path id="パス_3662" data-name="パス 3662" d="M13.892.132A4.207,4.207,0,0,0,11.828.125,4.555,4.555,0,0,0,10.25.889,6.1,6.1,0,0,0,9.179,1.914a5.869,5.869,0,0,0-.545.775,5.707,5.707,0,0,0-.543-.767A6.055,6.055,0,0,0,7.023.909,4.633,4.633,0,0,0,5.446.147,4.34,4.34,0,0,0,3.376.132,4.209,4.209,0,0,0,1.141,1.408,4.451,4.451,0,0,0,.092,3.56,5.275,5.275,0,0,0,.208,6.005,4.967,4.967,0,0,0,1.464,8.158c.6.6,1.34,1.252,2.106,1.9s1.563,1.294,2.292,1.888,1.391,1.135,1.885,1.572a3.672,3.672,0,0,1,.884.953h0a3.675,3.675,0,0,1,.884-.954c.495-.438,1.156-.979,1.885-1.572s1.526-1.24,2.292-1.888,1.5-1.3,2.105-1.9a5.076,5.076,0,0,0,1.271-2.14,5.169,5.169,0,0,0,.139-2.423A4.375,4.375,0,0,0,16.17,1.446,4.43,4.43,0,0,0,13.892.132Z" fill="#fc7c87"/>
</svg>
