<svg id="レイヤー_2" data-name="レイヤー 2" xmlns="http://www.w3.org/2000/svg" width="16.048" height="16.048" viewBox="0 0 16.048 16.048">
  <g id="デザイン" transform="translate(0 0)">
    <path id="パス_3649" data-name="パス 3649" d="M13.058,6.381a6.493,6.493,0,0,0-.8-2.984l0,0-.076-.13-.075-.13,0,0A6.551,6.551,0,0,0,9.925.954l0,0L9.8.875,9.666.8l0,0A6.5,6.5,0,0,0,6.68,0V0h-.3V0A6.495,6.495,0,0,0,3.4.8l0,0-.13.076h0L3.136.95l0,0A6.551,6.551,0,0,0,.955,3.138l0,0-.075.13L.8,3.4l0,0a6.488,6.488,0,0,0-.8,2.983H0v.3H.005A6.492,6.492,0,0,0,.8,9.666l0,0,.075.13.075.13,0,0a6.55,6.55,0,0,0,2.183,2.184l0,0,.129.074h0l.13.075,0,0a6.5,6.5,0,0,0,2.983.8v.005h.3v-.005a6.5,6.5,0,0,0,2.985-.8l0,0,.13-.075.13-.075,0,0a6.553,6.553,0,0,0,2.184-2.184l0,0,.076-.13.075-.13,0,0a6.495,6.495,0,0,0,.8-2.983h0v-.3ZM10.387,4.133l-1.123.648a3.254,3.254,0,0,0-.98-.98l.648-1.123a4.566,4.566,0,0,1,1.455,1.455Zm.684,2.549a4.514,4.514,0,0,1-.533,1.988L9.415,8.021a3.221,3.221,0,0,0,.361-1.34ZM6.682,1.689V.305a6.188,6.188,0,0,1,2.833.759l-.692,1.2,0,.006A4.807,4.807,0,0,0,6.681,1.7V1.689Zm-.3.305v1.3a3.219,3.219,0,0,0-1.34.361L4.394,2.527a4.511,4.511,0,0,1,1.987-.533ZM3.289,1.215l.694,1.2A4.858,4.858,0,0,0,2.418,3.983l0,0h0l-1.2-.691A6.259,6.259,0,0,1,3.289,1.215Zm.362,3.826a3.225,3.225,0,0,0-.361,1.34h-1.3a4.513,4.513,0,0,1,.533-1.989l1.037.6ZM2.263,8.822l-1.2.692A6.193,6.193,0,0,1,.305,6.682H1.694A4.816,4.816,0,0,0,2.269,8.82l0,0Zm.415.107L3.8,8.281a3.259,3.259,0,0,0,.981.98l-.648,1.125A4.562,4.562,0,0,1,2.678,8.93Zm3.7,2.445v1.384A6.192,6.192,0,0,1,3.549,12l.695-1.2a4.819,4.819,0,0,0,2.139.573Zm.15-1.9A2.947,2.947,0,1,1,8,3.982H8a2.946,2.946,0,0,1-1.471,5.5Zm.15,1.59V9.773a3.22,3.22,0,0,0,1.34-.361l.648,1.123a4.508,4.508,0,0,1-1.988.533Zm3.093.78-.692-1.2h0l0,0a4.856,4.856,0,0,0,1.565-1.566l0,0h0l.041.024,1.157.668a6.264,6.264,0,0,1-2.074,2.074Zm1.6-5.467h-.005a4.817,4.817,0,0,0-.574-2.137L12,3.549a6.191,6.191,0,0,1,.759,2.833Z" transform="translate(1.492 1.492)" fill="#1a1a1a"/>
    <path id="パス_3650" data-name="パス 3650" d="M8.024,0a8,8,0,1,0,3.123.631A8,8,0,0,0,8.024,0ZM13.3,13.3a7.435,7.435,0,1,1,.933-1.136A7.445,7.445,0,0,1,13.3,13.3Z" fill="#1a1a1a"/>
    <path id="パス_3651" data-name="パス 3651" d="M4.083,2.041a.52.52,0,0,0-.967-.265H2.307V.968a.52.52,0,1,0-.529,0v.809H.968a.52.52,0,1,0,0,.529h.809v.81a.52.52,0,1,0,.529,0v-.81h.809a.52.52,0,0,0,.967-.264Z" transform="translate(5.982 5.982)" fill="#1a1a1a"/>
    <path id="パス_3652" data-name="パス 3652" d="M.352.7A.352.352,0,1,0,.283.7.351.351,0,0,0,.352.7Z" transform="translate(6.698 3.957)" fill="#1a1a1a"/>
  </g>
</svg>
